<svg xmlns="http://www.w3.org/2000/svg" xmlns:xlink="http://www.w3.org/1999/xlink" xmlns:lucid="lucid" width="817.5" height="956.17"><g transform="translate(-40 -40)" lucid:page-tab-id="YqQFZBsrfYyF"><path d="M383 124.44h149.85V171H383v-46.56z" fill="#29aae1"/><path d="M390.2 176.28h135.45v3.6H390.2v-3.6z" fill="#2188b4"/><path d="M390.05 142.2H404v5.88h-13.95v-5.88z" fill="#fff"/><path d="M396.8 146.16c3.3 0 3.3 0 3.3 3.36v.6c0 3.24 0 3.24-3.3 3.24s-3.3 0-3.3-3.24v-.6c0-3.36 0-3.36 3.3-3.36zM411.5 142.2h13.95v5.88H411.5v-5.88z" fill="#fff"/><path d="M418.25 146.16c3.3 0 3.3 0 3.3 3.36v.6c0 3.24 0 3.24-3.3 3.24s-3.3 0-3.3-3.24v-.6c0-3.36 0-3.36 3.3-3.36zM434.15 142.2h13.95v5.88h-13.95v-5.88z" fill="#fff"/><path d="M440.9 146.16c3.3 0 3.3 0 3.3 3.36v.6c0 3.24 0 3.24-3.3 3.24s-3.3 0-3.3-3.24v-.6c0-3.36 0-3.36 3.3-3.36zM456.2 142.2h13.95v5.88H456.2v-5.88z" fill="#fff"/><path d="M462.95 146.16c3.3 0 3.3 0 3.3 3.36v.6c0 3.24 0 3.24-3.3 3.24s-3.3 0-3.3-3.24v-.6c0-3.36 0-3.36 3.3-3.36z" fill="#fff"/><path d="M517.85 93.96c5.7 1.08 5.7 1.08 4.65 6.6l-5.4 27.48c-1.05 5.64-1.05 5.64-6.75 4.56-5.55-1.08-5.55-1.08-4.5-6.6l5.25-27.6c1.2-5.52 1.2-5.52 6.75-4.44z" fill="#29aae1"/><path d="M523.85 63.48c3.45.72 3.45.72 2.85 4.08L521 96.24c-.6 3.36-.6 3.36-4.05 2.76-3.6-.72-3.6-.72-2.85-4.08l5.55-28.68c.6-3.36.6-3.36 4.2-2.76z" fill="#29aae1"/><path d="M487.55 128.04h40.2v37.92h-40.2v-37.92z" fill="#fff"/><path d="M488.9 129.36h37.35v35.16H488.9v-35.16z" fill="#54bbe7"/><path d="M506.9 131.04l-4.5 4.68h2.4l.15 6.48h4.65l-.45-6.48h2.4l-4.65-4.68zM507.65 161.76l4.5-4.44-2.25-.12-.15-6.48-4.65-.12.45 6.48H503l4.65 4.68zM509.3 146.76l4.5 4.68.15-2.28h6.45l.3-4.56-6.6.24v-1.68l.15-.72-4.95 4.32zM505.4 146.76l-4.5-4.56-.15 2.28-6.45-.12-.3 4.56 6.6-.24v1.8l-.15.72 4.95-4.44z" fill="#fff"/><path d="M397.7 91.56c5.55-1.08 5.55-1.08 6.6 4.44l5.4 27.48c1.2 5.64 1.2 5.64-4.5 6.72s-5.7 1.08-6.75-4.56l-5.4-27.48c-1.05-5.52-1.05-5.52 4.65-6.6z" fill="#29aae1"/><path d="M391.7 61.08c3.45-.72 3.45-.72 4.2 2.76l5.55 28.68c.6 3.36.6 3.36-2.85 4.08-3.45.6-3.45.6-4.05-2.76l-5.7-28.68c-.6-3.48-.6-3.48 2.85-4.08z" fill="#29aae1"/><path d="M343 103.67c0-3.32 2.7-6 6-6h28c3.3 0 6 2.68 6 6v32.66c0 3.32-2.7 6-6 6h-28c-3.3 0-6-2.68-6-6z" stroke="#000" stroke-opacity="0" stroke-width="3" fill="#fff" fill-opacity="0"/><use xlink:href="#a" transform="matrix(1,0,0,1,348,102.66666666666667) translate(2.200617283950617 25.29861111111111)"/><path d="M417.52 809.83h-2v-19.26h2zm0-53.92h-2V620.97h2z" fill="#333"/><path d="M417.52 620.98h-2v-1.02h2zm0-3.95h-2l2-.07zM417.52 810.83h-2v-1.02h2z" fill="#333"/><use xlink:href="#b" transform="matrix(1,0,0,1,340.2854686033491,755.9058955959373) translate(0 23.11111111111111)"/><path d="M120 810.83h70.07v120.12H120V810.83z" fill="#29aae1"/><path d="M146.74 894.23h35.63c1.12 0 1.12 0 1.12 1.2 0 1.08 0 1.08-1.13 1.08h-35.63c-1.2 0-1.2 0-1.2-1.07 0-1.2 0-1.2 1.2-1.2zM146.8 900.35h35.5c1.54 0 1.54 0 1.54 1.56v.37c0 1.56 0 1.56-1.54 1.56h-35.5c-1.6 0-1.6 0-1.6-1.56v-.36c0-1.55 0-1.55 1.6-1.55zM146.95 907.9h35.56c1.55 0 1.55 0 1.55 1.57v.36c0 1.56 0 1.56-1.54 1.56h-35.55c-1.54 0-1.54 0-1.54-1.57v-.36c0-1.56 0-1.56 1.55-1.56zM179.36 869.15c0 3.12-2.52 5.64-5.74 5.64s-5.8-2.53-5.8-5.65c0-3.12 2.58-5.64 5.8-5.64 3.22 0 5.74 2.53 5.74 5.65z" fill="#fff"/><path d="M177.05 869.15c0 1.92-1.54 3.48-3.5 3.48s-3.57-1.56-3.57-3.48 1.6-3.48 3.57-3.48c1.96 0 3.5 1.56 3.5 3.48z" fill="#54bbe7"/><use xlink:href="#c" transform="matrix(1,0,0,1,90,930.833333333314) translate(38.558641975308646 23.27777777777778)"/><path d="M100 398.2h149.85v46.55H100V398.2z" fill="#29aae1"/><path d="M107.2 450.03h135.45v3.6H107.2v-3.6z" fill="#2188b4"/><path d="M107.05 415.95H121v5.88h-13.95v-5.88z" fill="#fff"/><path d="M113.8 419.9c3.3 0 3.3 0 3.3 3.37v.6c0 3.24 0 3.24-3.3 3.24s-3.3 0-3.3-3.23v-.6c0-3.36 0-3.36 3.3-3.36zM128.5 415.95h13.95v5.88H128.5v-5.88z" fill="#fff"/><path d="M135.25 419.9c3.3 0 3.3 0 3.3 3.37v.6c0 3.24 0 3.24-3.3 3.24s-3.3 0-3.3-3.23v-.6c0-3.36 0-3.36 3.3-3.36zM151.15 415.95h13.95v5.88h-13.95v-5.88z" fill="#fff"/><path d="M157.9 419.9c3.3 0 3.3 0 3.3 3.37v.6c0 3.24 0 3.24-3.3 3.24s-3.3 0-3.3-3.23v-.6c0-3.36 0-3.36 3.3-3.36zM173.2 415.95h13.95v5.88H173.2v-5.88z" fill="#fff"/><path d="M179.95 419.9c3.3 0 3.3 0 3.3 3.37v.6c0 3.24 0 3.24-3.3 3.24s-3.3 0-3.3-3.23v-.6c0-3.36 0-3.36 3.3-3.36z" fill="#fff"/><path d="M234.85 367.7c5.7 1.1 5.7 1.1 4.65 6.6l-5.4 27.5c-1.05 5.63-1.05 5.63-6.75 4.55-5.55-1.08-5.55-1.08-4.5-6.6l5.25-27.6c1.2-5.52 1.2-5.52 6.75-4.44z" fill="#29aae1"/><path d="M240.85 337.23c3.45.72 3.45.72 2.85 4.08L238 370c-.6 3.35-.6 3.35-4.05 2.75-3.6-.72-3.6-.72-2.85-4.08l5.55-28.68c.6-3.37.6-3.37 4.2-2.77z" fill="#29aae1"/><path d="M204.55 401.8h40.2v37.9h-40.2v-37.9z" fill="#fff"/><path d="M205.9 403.1h37.35v35.17H205.9V403.1z" fill="#54bbe7"/><path d="M223.9 404.8l-4.5 4.67h2.4l.15 6.48h4.65l-.45-6.48h2.4l-4.65-4.68zM224.65 435.5l4.5-4.43-2.25-.12-.15-6.48-4.65-.12.45 6.48H220l4.65 4.68zM226.3 420.5l4.5 4.7.15-2.3h6.45l.3-4.55-6.6.24v-1.7l.15-.7-4.95 4.3zM222.4 420.5l-4.5-4.55-.15 2.28-6.45-.12-.3 4.57 6.6-.24v1.8l-.15.72 4.95-4.44z" fill="#fff"/><path d="M114.7 365.3c5.55-1.07 5.55-1.07 6.6 4.45l5.4 27.48c1.2 5.64 1.2 5.64-4.5 6.72s-5.7 1.08-6.75-4.56l-5.4-27.5c-1.05-5.5-1.05-5.5 4.65-6.6z" fill="#29aae1"/><path d="M108.7 334.83c3.45-.72 3.45-.72 4.2 2.76l5.55 28.67c.6 3.36.6 3.36-2.85 4.08-3.45.6-3.45.6-4.05-2.76l-5.7-28.7c-.6-3.47-.6-3.47 2.85-4.07z" fill="#29aae1"/><path d="M60 388.08c0-3.3 2.7-6 6-6h28c3.3 0 6 2.7 6 6v51.34c0 3.3-2.7 6-6 6H66c-3.3 0-6-2.7-6-6z" stroke="#000" stroke-opacity="0" stroke-width="3" fill="#fff" fill-opacity="0"/><use xlink:href="#d" transform="matrix(1,0,0,1,65,387.0833333333333) translate(2.200617283950617 33.236111111111114)"/><path d="M110 575h124.88v37.7H110V575z" fill="#29aae1"/><path d="M116 617.03h112.88v2.93H116v-2.93z" fill="#2188b4"/><path d="M119 581.66h11.5v4.86H119v-4.86z" fill="#fff"/><path d="M124.5 584.95c2.88 0 2.88 0 2.88 2.65v.5c0 2.65 0 2.65-2.88 2.65-2.75 0-2.75 0-2.75-2.65v-.5c0-2.65 0-2.65 2.75-2.65zM136.88 581.66h11.5v4.86h-11.5v-4.86z" fill="#fff"/><path d="M142.5 584.95c2.75 0 2.75 0 2.75 2.65v.5c0 2.65 0 2.65-2.75 2.65-2.88 0-2.88 0-2.88-2.65v-.5c0-2.65 0-2.65 2.88-2.65zM155.75 581.66h11.5v4.86h-11.5v-4.86z" fill="#fff"/><path d="M161.38 584.95c2.75 0 2.75 0 2.75 2.65v.5c0 2.65 0 2.65-2.75 2.65-2.88 0-2.88 0-2.88-2.65v-.5c0-2.65 0-2.65 2.88-2.65zM174 581.66h11.63v4.86H174v-4.86z" fill="#fff"/><path d="M179.63 584.95c2.75 0 2.75 0 2.75 2.65v.5c0 2.65 0 2.65-2.75 2.65s-2.75 0-2.75-2.65v-.5c0-2.65 0-2.65 2.75-2.65zM197.13 577.92h33.5v30.74h-33.5v-30.74z" fill="#fff"/><path d="M198.25 578.96h31.13v28.53h-31.13v-28.54z" fill="#54bbe7"/><path d="M119.25 596.83h11.63v4.8h-11.63v-4.8z" fill="#fff"/><path d="M124.88 600.07c2.75 0 2.75 0 2.75 2.65v.5c0 2.65 0 2.65-2.75 2.65s-2.75 0-2.75-2.65v-.5c0-2.65 0-2.65 2.75-2.65zM137.13 596.83h11.62v4.8h-11.63v-4.8z" fill="#fff"/><path d="M142.75 600.07c2.75 0 2.75 0 2.75 2.65v.5c0 2.65 0 2.65-2.75 2.65s-2.75 0-2.75-2.65v-.5c0-2.65 0-2.65 2.75-2.65zM156 596.83h11.63v4.8H156v-4.8z" fill="#fff"/><path d="M161.63 600.07c2.75 0 2.75 0 2.75 2.65v.5c0 2.65 0 2.65-2.75 2.65s-2.75 0-2.75-2.65v-.5c0-2.65 0-2.65 2.75-2.65zM174.38 596.83H186v4.8h-11.63v-4.8z" fill="#fff"/><path d="M180 600.07c2.75 0 2.75 0 2.75 2.65v.5c0 2.65 0 2.65-2.75 2.65s-2.75 0-2.75-2.65v-.5c0-2.65 0-2.65 2.75-2.65zM201.75 580.26l-3.13 3.07 3.25 3-.12-6.07zM201.75 600.25l-3.13 3.05 3.13 3.02v-6.08zM225.63 606.37l3.12-3.02-3.13-3.06v6.07zM225.75 586.48l3.13-3.02-3.13-3.06v6.08z" fill="#fff"/><path d="M201.5 582.07h4.75v2.42h-4.75v-2.43zM221.5 582.3h4.63v2.42h-4.63v-2.43zM201.5 602.04h4.63v2.44h-4.63v-2.44zM221.38 602.23H226v2.42h-4.63v-2.42z" fill="#fff"/><path d="M204 583.68l2.13-1.6 17.37 20.95-2.13 1.63L204 583.67z" fill="#fff"/><path d="M221.5 582.3l2 1.75-17.38 20.47-2.12-1.75 17.5-20.48z" fill="#fff"/><path d="M214.13 590.9l2 2.46-.38.27-2-2.48.38-.26zM211.88 593.23l2 2.47-.38.27-2-2.48.38-.27z" fill="#54bbe7"/><path d="M70 578.67c0-3.32 2.7-6 6-6h28c3.3 0 6 2.68 6 6v32.66c0 3.32-2.7 6-6 6H76c-3.3 0-6-2.68-6-6z" stroke="#000" stroke-opacity="0" stroke-width="3" fill="#fff" fill-opacity="0"/><use xlink:href="#e" transform="matrix(1,0,0,1,75,577.6666666666666) translate(-0.2469135802469129 23.27777777777778)"/><path d="M377 398.2h149.85v46.55H377V398.2z" fill="#29aae1"/><path d="M384.2 450.03h135.45v3.6H384.2v-3.6z" fill="#2188b4"/><path d="M384.05 415.95H398v5.88h-13.95v-5.88z" fill="#fff"/><path d="M390.8 419.9c3.3 0 3.3 0 3.3 3.37v.6c0 3.24 0 3.24-3.3 3.24s-3.3 0-3.3-3.23v-.6c0-3.36 0-3.36 3.3-3.36zM405.5 415.95h13.95v5.88H405.5v-5.88z" fill="#fff"/><path d="M412.25 419.9c3.3 0 3.3 0 3.3 3.37v.6c0 3.24 0 3.24-3.3 3.24s-3.3 0-3.3-3.23v-.6c0-3.36 0-3.36 3.3-3.36zM428.15 415.95h13.95v5.88h-13.95v-5.88z" fill="#fff"/><path d="M434.9 419.9c3.3 0 3.3 0 3.3 3.37v.6c0 3.24 0 3.24-3.3 3.24s-3.3 0-3.3-3.23v-.6c0-3.36 0-3.36 3.3-3.36zM450.2 415.95h13.95v5.88H450.2v-5.88z" fill="#fff"/><path d="M456.95 419.9c3.3 0 3.3 0 3.3 3.37v.6c0 3.24 0 3.24-3.3 3.24s-3.3 0-3.3-3.23v-.6c0-3.36 0-3.36 3.3-3.36z" fill="#fff"/><path d="M511.85 367.7c5.7 1.1 5.7 1.1 4.65 6.6l-5.4 27.5c-1.05 5.63-1.05 5.63-6.75 4.55-5.55-1.08-5.55-1.08-4.5-6.6l5.25-27.6c1.2-5.52 1.2-5.52 6.75-4.44z" fill="#29aae1"/><path d="M517.85 337.23c3.45.72 3.45.72 2.85 4.08L515 370c-.6 3.35-.6 3.35-4.05 2.75-3.6-.72-3.6-.72-2.85-4.08l5.55-28.68c.6-3.37.6-3.37 4.2-2.77z" fill="#29aae1"/><path d="M481.55 401.8h40.2v37.9h-40.2v-37.9z" fill="#fff"/><path d="M482.9 403.1h37.35v35.17H482.9V403.1z" fill="#54bbe7"/><path d="M500.9 404.8l-4.5 4.67h2.4l.15 6.48h4.65l-.45-6.48h2.4l-4.65-4.68zM501.65 435.5l4.5-4.43-2.25-.12-.15-6.48-4.65-.12.45 6.48H497l4.65 4.68zM503.3 420.5l4.5 4.7.15-2.3h6.45l.3-4.55-6.6.24v-1.7l.15-.7-4.95 4.3zM499.4 420.5l-4.5-4.55-.15 2.28-6.45-.12-.3 4.57 6.6-.24v1.8l-.15.72 4.95-4.44z" fill="#fff"/><path d="M391.7 365.3c5.55-1.07 5.55-1.07 6.6 4.45l5.4 27.48c1.2 5.64 1.2 5.64-4.5 6.72s-5.7 1.08-6.75-4.56l-5.4-27.5c-1.05-5.5-1.05-5.5 4.65-6.6z" fill="#29aae1"/><path d="M385.7 334.83c3.45-.72 3.45-.72 4.2 2.76l5.55 28.67c.6 3.36.6 3.36-2.85 4.08-3.45.6-3.45.6-4.05-2.76l-5.7-28.7c-.6-3.47-.6-3.47 2.85-4.07z" fill="#29aae1"/><path d="M337 397.42c0-3.32 2.7-6 6-6h28c3.3 0 6 2.68 6 6v32.66c0 3.32-2.7 6-6 6h-28c-3.3 0-6-2.68-6-6z" stroke="#000" stroke-opacity="0" stroke-width="3" fill="#fff" fill-opacity="0"/><use xlink:href="#f" transform="matrix(1,0,0,1,342,396.4166666666667) translate(2.200617283950617 25.29861111111111)"/><path d="M654 398.2h149.85v46.55H654V398.2z" fill="#29aae1"/><path d="M661.2 450.03h135.45v3.6H661.2v-3.6z" fill="#2188b4"/><path d="M661.05 415.95H675v5.88h-13.95v-5.88z" fill="#fff"/><path d="M667.8 419.9c3.3 0 3.3 0 3.3 3.37v.6c0 3.24 0 3.24-3.3 3.24s-3.3 0-3.3-3.23v-.6c0-3.36 0-3.36 3.3-3.36zM682.5 415.95h13.95v5.88H682.5v-5.88z" fill="#fff"/><path d="M689.25 419.9c3.3 0 3.3 0 3.3 3.37v.6c0 3.24 0 3.24-3.3 3.24s-3.3 0-3.3-3.23v-.6c0-3.36 0-3.36 3.3-3.36zM705.15 415.95h13.95v5.88h-13.95v-5.88z" fill="#fff"/><path d="M711.9 419.9c3.3 0 3.3 0 3.3 3.37v.6c0 3.24 0 3.24-3.3 3.24s-3.3 0-3.3-3.23v-.6c0-3.36 0-3.36 3.3-3.36zM727.2 415.95h13.95v5.88H727.2v-5.88z" fill="#fff"/><path d="M733.95 419.9c3.3 0 3.3 0 3.3 3.37v.6c0 3.24 0 3.24-3.3 3.24s-3.3 0-3.3-3.23v-.6c0-3.36 0-3.36 3.3-3.36z" fill="#fff"/><path d="M788.85 367.7c5.7 1.1 5.7 1.1 4.65 6.6l-5.4 27.5c-1.05 5.63-1.05 5.63-6.75 4.55-5.55-1.08-5.55-1.08-4.5-6.6l5.25-27.6c1.2-5.52 1.2-5.52 6.75-4.44z" fill="#29aae1"/><path d="M794.85 337.23c3.45.72 3.45.72 2.85 4.08L792 370c-.6 3.35-.6 3.35-4.05 2.75-3.6-.72-3.6-.72-2.85-4.08l5.55-28.68c.6-3.37.6-3.37 4.2-2.77z" fill="#29aae1"/><path d="M758.55 401.8h40.2v37.9h-40.2v-37.9z" fill="#fff"/><path d="M759.9 403.1h37.35v35.17H759.9V403.1z" fill="#54bbe7"/><path d="M777.9 404.8l-4.5 4.67h2.4l.15 6.48h4.65l-.45-6.48h2.4l-4.65-4.68zM778.65 435.5l4.5-4.43-2.25-.12-.15-6.48-4.65-.12.45 6.48H774l4.65 4.68zM780.3 420.5l4.5 4.7.15-2.3h6.45l.3-4.55-6.6.24v-1.7l.15-.7-4.95 4.3zM776.4 420.5l-4.5-4.55-.15 2.28-6.45-.12-.3 4.57 6.6-.24v1.8l-.15.72 4.95-4.44z" fill="#fff"/><path d="M668.7 365.3c5.55-1.07 5.55-1.07 6.6 4.45l5.4 27.48c1.2 5.64 1.2 5.64-4.5 6.72s-5.7 1.08-6.75-4.56l-5.4-27.5c-1.05-5.5-1.05-5.5 4.65-6.6z" fill="#29aae1"/><path d="M662.7 334.83c3.45-.72 3.45-.72 4.2 2.76l5.55 28.67c.6 3.36.6 3.36-2.85 4.08-3.45.6-3.45.6-4.05-2.76l-5.7-28.7c-.6-3.47-.6-3.47 2.85-4.07z" fill="#29aae1"/><path d="M614 397.42c0-3.32 2.7-6 6-6h28c3.3 0 6 2.68 6 6v32.66c0 3.32-2.7 6-6 6h-28c-3.3 0-6-2.68-6-6z" stroke="#000" stroke-opacity="0" stroke-width="3" fill="#fff" fill-opacity="0"/><use xlink:href="#g" transform="matrix(1,0,0,1,619,396.4166666666667) translate(2.200617283950617 25.29861111111111)"/><path d="M386 575h124.88v37.7H386V575z" fill="#29aae1"/><path d="M392 617.03h112.88v2.93H392v-2.93z" fill="#2188b4"/><path d="M395 581.66h11.5v4.86H395v-4.86z" fill="#fff"/><path d="M400.5 584.95c2.88 0 2.88 0 2.88 2.65v.5c0 2.65 0 2.65-2.88 2.65-2.75 0-2.75 0-2.75-2.65v-.5c0-2.65 0-2.65 2.75-2.65zM412.88 581.66h11.5v4.86h-11.5v-4.86z" fill="#fff"/><path d="M418.5 584.95c2.75 0 2.75 0 2.75 2.65v.5c0 2.65 0 2.65-2.75 2.65-2.88 0-2.88 0-2.88-2.65v-.5c0-2.65 0-2.65 2.88-2.65zM431.75 581.66h11.5v4.86h-11.5v-4.86z" fill="#fff"/><path d="M437.38 584.95c2.75 0 2.75 0 2.75 2.65v.5c0 2.65 0 2.65-2.75 2.65-2.88 0-2.88 0-2.88-2.65v-.5c0-2.65 0-2.65 2.88-2.65zM450 581.66h11.63v4.86H450v-4.86z" fill="#fff"/><path d="M455.63 584.95c2.75 0 2.75 0 2.75 2.65v.5c0 2.65 0 2.65-2.75 2.65s-2.75 0-2.75-2.65v-.5c0-2.65 0-2.65 2.75-2.65zM473.13 577.92h33.5v30.74h-33.5v-30.74z" fill="#fff"/><path d="M474.25 578.96h31.13v28.53h-31.13v-28.54z" fill="#54bbe7"/><path d="M395.25 596.83h11.63v4.8h-11.63v-4.8z" fill="#fff"/><path d="M400.88 600.07c2.75 0 2.75 0 2.75 2.65v.5c0 2.65 0 2.65-2.75 2.65s-2.75 0-2.75-2.65v-.5c0-2.65 0-2.65 2.75-2.65zM413.13 596.83h11.62v4.8h-11.63v-4.8z" fill="#fff"/><path d="M418.75 600.07c2.75 0 2.75 0 2.75 2.65v.5c0 2.65 0 2.65-2.75 2.65s-2.75 0-2.75-2.65v-.5c0-2.65 0-2.65 2.75-2.65zM432 596.83h11.63v4.8H432v-4.8z" fill="#fff"/><path d="M437.63 600.07c2.75 0 2.75 0 2.75 2.65v.5c0 2.65 0 2.65-2.75 2.65s-2.75 0-2.75-2.65v-.5c0-2.65 0-2.65 2.75-2.65zM450.38 596.83H462v4.8h-11.63v-4.8z" fill="#fff"/><path d="M456 600.07c2.75 0 2.75 0 2.75 2.65v.5c0 2.65 0 2.65-2.75 2.65s-2.75 0-2.75-2.65v-.5c0-2.65 0-2.65 2.75-2.65zM477.75 580.26l-3.13 3.07 3.25 3-.12-6.07zM477.75 600.25l-3.13 3.05 3.13 3.02v-6.08zM501.63 606.37l3.12-3.02-3.13-3.06v6.07zM501.75 586.48l3.13-3.02-3.13-3.06v6.08z" fill="#fff"/><path d="M477.5 582.07h4.75v2.42h-4.75v-2.43zM497.5 582.3h4.63v2.42h-4.63v-2.43zM477.5 602.04h4.63v2.44h-4.63v-2.44zM497.38 602.23H502v2.42h-4.63v-2.42z" fill="#fff"/><path d="M480 583.68l2.13-1.6 17.37 20.95-2.13 1.63L480 583.67z" fill="#fff"/><path d="M497.5 582.3l2 1.75-17.38 20.47-2.12-1.75 17.5-20.48z" fill="#fff"/><path d="M490.13 590.9l2 2.46-.38.27-2-2.48.38-.26zM487.88 593.23l2 2.47-.38.27-2-2.48.38-.27z" fill="#54bbe7"/><path d="M346 578.67c0-3.32 2.7-6 6-6h28c3.3 0 6 2.68 6 6v32.66c0 3.32-2.7 6-6 6h-28c-3.3 0-6-2.68-6-6z" stroke="#000" stroke-opacity="0" stroke-width="3" fill="#fff" fill-opacity="0"/><use xlink:href="#h" transform="matrix(1,0,0,1,351,577.6666666666666) translate(-0.2469135802469129 23.27777777777778)"/><path d="M399.46 810.83h70.07v120.12h-70.07V810.83z" fill="#29aae1"/><path d="M426.2 894.23h35.63c1.12 0 1.12 0 1.12 1.2 0 1.08 0 1.08-1.12 1.08H426.2c-1.2 0-1.2 0-1.2-1.07 0-1.2 0-1.2 1.2-1.2zM426.27 900.35h35.5c1.53 0 1.53 0 1.53 1.56v.37c0 1.56 0 1.56-1.54 1.56h-35.5c-1.6 0-1.6 0-1.6-1.56v-.36c0-1.55 0-1.55 1.6-1.55zM426.4 907.9h35.57c1.54 0 1.54 0 1.54 1.57v.36c0 1.56 0 1.56-1.53 1.56H426.4c-1.53 0-1.53 0-1.53-1.57v-.36c0-1.56 0-1.56 1.54-1.56zM458.82 869.15c0 3.12-2.52 5.64-5.74 5.64s-5.8-2.53-5.8-5.65c0-3.12 2.58-5.64 5.8-5.64 3.22 0 5.74 2.53 5.74 5.65z" fill="#fff"/><path d="M456.5 869.15c0 1.92-1.53 3.48-3.5 3.48-1.95 0-3.56-1.56-3.56-3.48s1.6-3.48 3.57-3.48c1.97 0 3.5 1.56 3.5 3.48z" fill="#54bbe7"/><use xlink:href="#i" transform="matrix(1,0,0,1,369.46470539980737,930.8333333333723) translate(38.558641975308646 23.27777777777778)"/><path d="M677.5 575h124.88v37.7H677.5V575z" fill="#29aae1"/><path d="M683.5 617.03h112.88v2.93H683.5v-2.93z" fill="#2188b4"/><path d="M686.5 581.66H698v4.86h-11.5v-4.86z" fill="#fff"/><path d="M692 584.95c2.88 0 2.88 0 2.88 2.65v.5c0 2.65 0 2.65-2.88 2.65-2.75 0-2.75 0-2.75-2.65v-.5c0-2.65 0-2.65 2.75-2.65zM704.38 581.66h11.5v4.86h-11.5v-4.86z" fill="#fff"/><path d="M710 584.95c2.75 0 2.75 0 2.75 2.65v.5c0 2.65 0 2.65-2.75 2.65-2.88 0-2.88 0-2.88-2.65v-.5c0-2.65 0-2.65 2.88-2.65zM723.25 581.66h11.5v4.86h-11.5v-4.86z" fill="#fff"/><path d="M728.88 584.95c2.75 0 2.75 0 2.75 2.65v.5c0 2.65 0 2.65-2.75 2.65-2.88 0-2.88 0-2.88-2.65v-.5c0-2.65 0-2.65 2.88-2.65zM741.5 581.66h11.63v4.86H741.5v-4.86z" fill="#fff"/><path d="M747.13 584.95c2.75 0 2.75 0 2.75 2.65v.5c0 2.65 0 2.65-2.75 2.65s-2.75 0-2.75-2.65v-.5c0-2.65 0-2.65 2.75-2.65zM764.63 577.92h33.5v30.74h-33.5v-30.74z" fill="#fff"/><path d="M765.75 578.96h31.13v28.53h-31.13v-28.54z" fill="#54bbe7"/><path d="M686.75 596.83h11.63v4.8h-11.63v-4.8z" fill="#fff"/><path d="M692.38 600.07c2.75 0 2.75 0 2.75 2.65v.5c0 2.65 0 2.65-2.75 2.65s-2.75 0-2.75-2.65v-.5c0-2.65 0-2.65 2.75-2.65zM704.63 596.83h11.62v4.8h-11.63v-4.8z" fill="#fff"/><path d="M710.25 600.07c2.75 0 2.75 0 2.75 2.65v.5c0 2.65 0 2.65-2.75 2.65s-2.75 0-2.75-2.65v-.5c0-2.65 0-2.65 2.75-2.65zM723.5 596.83h11.63v4.8H723.5v-4.8z" fill="#fff"/><path d="M729.13 600.07c2.75 0 2.75 0 2.75 2.65v.5c0 2.65 0 2.65-2.75 2.65s-2.75 0-2.75-2.65v-.5c0-2.65 0-2.65 2.75-2.65zM741.88 596.83h11.62v4.8h-11.63v-4.8z" fill="#fff"/><path d="M747.5 600.07c2.75 0 2.75 0 2.75 2.65v.5c0 2.65 0 2.65-2.75 2.65s-2.75 0-2.75-2.65v-.5c0-2.65 0-2.65 2.75-2.65zM769.25 580.26l-3.13 3.07 3.25 3-.12-6.07zM769.25 600.25l-3.13 3.05 3.13 3.02v-6.08zM793.13 606.37l3.12-3.02-3.13-3.06v6.07zM793.25 586.48l3.13-3.02-3.13-3.06v6.08z" fill="#fff"/><path d="M769 582.07h4.75v2.42H769v-2.43zM789 582.3h4.63v2.42H789v-2.43zM769 602.04h4.63v2.44H769v-2.44zM788.88 602.23h4.62v2.42h-4.63v-2.42z" fill="#fff"/><path d="M771.5 583.68l2.13-1.6L791 603.02l-2.13 1.63-17.37-20.98z" fill="#fff"/><path d="M789 582.3l2 1.75-17.38 20.47-2.12-1.75L789 582.3z" fill="#fff"/><path d="M781.63 590.9l2 2.46-.38.27-2-2.48.38-.26zM779.38 593.23l2 2.47-.38.27-2-2.48.38-.27z" fill="#54bbe7"/><path d="M637.5 578.67c0-3.32 2.7-6 6-6h28c3.3 0 6 2.68 6 6v32.66c0 3.32-2.7 6-6 6h-28c-3.3 0-6-2.68-6-6z" stroke="#000" stroke-opacity="0" stroke-width="3" fill="#fff" fill-opacity="0"/><use xlink:href="#j" transform="matrix(1,0,0,1,642.5,577.6666666666666) translate(-0.2469135802469129 23.27777777777778)"/><path d="M459 397.2h-2v-67.16h2zm0-101.83h-2v-65.84h2zm0-100.5h-2v-14h2z" fill="#333"/><path d="M459 180.9h-2v-1.02h2zM459 398.2h-2v-1.04h2z" fill="#333"/><use xlink:href="#k" transform="matrix(1,0,0,1,405.8395061728395,295.3683588537975) translate(0 23.11111111111111)"/><use xlink:href="#l" transform="matrix(1,0,0,1,389.7901234567901,194.8594776157714) translate(0 23.11111111111111)"/><path d="M141.52 809.83h-2v-19.26h2zm0-53.92h-2V620.97h2z" fill="#333"/><path d="M141.52 620.98h-2v-1.02h2zm0-3.95h-2l2-.07zM141.52 810.83h-2v-1.02h2z" fill="#333"/><use xlink:href="#b" transform="matrix(1,0,0,1,64.28546860334895,755.9068955959372) translate(0 23.11111111111111)"/><path d="M452.08 511.86l-2.53 2.53-3.42.92H422.6l-2.65.7-1.78 1.8-.7 2.63V574h-2v-53.82l.9-3.4 2.54-2.54 3.42-.92h23.55l2.64-.72 1.68-1.67h2.15zm.92-35.6h-2v-21.63h2z" fill="#333"/><path d="M453 454.66h-2v-1.03h2zM417.46 575h-2v-1.03h2z" fill="#333"/><use xlink:href="#m" transform="matrix(1,0,0,1,359.71604938271605,476.2667261162521) translate(0 23.11111111111111)"/><path d="M725.7 905.12h18v13.94h-18v-13.94zM638.7 780h190.4v125.12H638.7V780z" fill="#29aae1"/><path d="M647.3 787.65h173.8V899.5H647.3V787.66z" fill="#fff" fill-opacity=".98"/><path d="M646.1 919.9h173.6l-8.6 29.93H637.5l8.6-29.92z" fill="#29aae1"/><path d="M645.1 918.9h177.6l14.8 30.93H659.9l-14.8-30.94z" fill="#29aae1"/><path d="M705.3 941.84h63.2v6.3h-63.2v-6.3zM670.5 923.82h4.6v3.9h-4.6v-3.9zM678.7 924h4.8v3.9h-4.8V924zM689.3 931.13h4.8v3.9h-4.8v-3.9zM687.7 923.48h4.6v4.08h-4.6v-4.08zM695.7 923.82h4.8v3.9h-4.8v-3.9zM703.5 923.48h4.8v4.08h-4.8v-4.08zM752.5 924.16h4.8v4.08h-4.8v-4.08zM759.7 924.16h4.8v4.08h-4.8v-4.08zM766.5 924.16h4.8v4.08h-4.8v-4.08zM774.7 924.16h4.6v4.08h-4.6v-4.08zM782.1 924.16h4.6v4.08h-4.6v-4.08zM773.3 930.8h4.6v3.9h-4.6v-3.9zM790.5 924.16h4.8v4.08h-4.8v-4.08zM698.3 930.96h4.6v3.9h-4.6v-3.9zM707.3 930.96h4.6v3.9h-4.6v-3.9zM765.9 930.62h4v3.9h-4v-3.9zM757.7 930.62h4.8v3.9h-4.8v-3.9zM712.3 923.65h4.8v4.08h-4.8v-4.08zM721.3 923.82h4.6v4.08h-4.6v-4.08zM729.5 923.65h4.6v4.08h-4.6v-4.08zM738.5 923.65h4.6v4.08h-4.6v-4.08zM745.9 923.82h4.6v4.08h-4.6v-4.08zM715.3 930.8h4.8v3.9h-4.8v-3.9zM724.3 930.8h4.6v3.9h-4.6v-3.9zM732.5 930.96h4.8v3.9h-4.8v-3.9zM740.7 930.96h4.6v3.9h-4.6v-3.9zM749.1 930.62h4.6v3.9h-4.6v-3.9z" fill="#fff"/><path d="M637.7 949.83l199.8-.68-14.2-30.26-177 .33-8.6 30.6z" fill="none"/><path d="M724.7 905.12h19.6V907h-19.6v-1.88zM725.5 916.68h18.6v2.2h-18.6v-2.2z" fill="#fff"/><use xlink:href="#n" transform="matrix(1,0,0,1,607.5,949.9999999999807) translate(91.4814814814815 23.27777777777778)"/><path d="M175.08 511.86l-2.53 2.53-3.42.92H146.6l-2.65.7-1.78 1.8-.7 2.63V574h-2v-53.82l.9-3.4 2.54-2.54 3.42-.92h22.55l2.64-.72 1.8-1.78.07-.32h2.08zm.92-36.03h-2v-21.2h2z" fill="#333"/><path d="M176 454.66h-2v-1.03h2zM141.46 575h-2v-1.03h2z" fill="#333"/><use xlink:href="#m" transform="matrix(1,0,0,1,82.71604938271604,475.8325756010791) translate(0 23.11111111111111)"/><path d="M730 397.2h-2v-66.67h2zm-3.45-247.34l2.53 2.53.92 3.4v140.06h-2v-139.8l-.7-2.63-1.8-1.78-2.63-.7H710.2v-2h12.93zm-192.7 1.08v-2h39.94v2z" fill="#333"/><path d="M533.88 150.94h-1.03v-2h1.03zM730 398.2h-2v-1.04h2z" fill="#333"/><use xlink:href="#o" transform="matrix(1,0,0,1,573.7866482904078,132.60666666666668) translate(0 23.11111111111111)"/><use xlink:href="#p" transform="matrix(1,0,0,1,676.8395061728395,295.864928543629) translate(0 23.11111111111111)"/><path d="M738.5 779h-2v-8.27h2zm-29.48-85.16l.7 2.65 1.8 1.76 2.63.72h17.48l3.42.92 2.53 2.53.92 3.4v30.23h-2V706.1l-.7-2.63-1.8-1.78-2.63-.72H713.9l-3.43-.93-2.53-2.53-.92-3.4v-73.16h2z" fill="#333"/><path d="M709.02 620.98h-2v-1.02h2zm0-3.95h-2l2-.07zM738.5 780h-2v-1.03h2z" fill="#333"/><use xlink:href="#b" transform="matrix(1,0,0,1,661.2654320987655,736.0621087707435) translate(0 23.11111111111111)"/><path d="M176 397.2h-2v-67.16h2zM202.03 151h-20.9l-2.64.7-1.8 1.8-.7 2.63v139.24h-2v-139.5l.92-3.42 2.53-2.53 3.42-.92h21.16zM382 151h-43.55v-2H382z" fill="#333"/><path d="M383 151h-1.03v-2H383zM176 398.2h-2v-1.04h2z" fill="#333"/><use xlink:href="#q" transform="matrix(1,0,0,1,202.03113714317107,132.66666666666666) translate(0 23.11111111111111)"/><use xlink:href="#r" transform="matrix(1,0,0,1,122.8395061728395,295.3683588537975) translate(0 23.11111111111111)"/><path d="M729.08 511.86l-2.53 2.53-3.42.92h-9.04l-2.65.7-1.78 1.8-.7 2.63V574h-2v-53.82l.9-3.4 2.54-2.54 3.42-.92h9.05l2.64-.72 1.68-1.67h2.15zm.92-35.6h-2v-21.63h2z" fill="#333"/><path d="M730 454.66h-2v-1.03h2zM708.96 575h-2v-1.03h2z" fill="#333"/><use xlink:href="#m" transform="matrix(1,0,0,1,636.716049382716,476.2667261162521) translate(0 23.11111111111111)"/><path d="M603.75 544.14c0 10.6-11.92 19.14-26.63 19.14-14.77 0-26.7-8.55-26.7-19.14 0-10.6 11.93-19.14 26.7-19.14 14.7 0 26.63 8.55 26.63 19.14zM554.25 565.16h46.27c14.25 0 14.25 0 14.25 10.3s0 10.3-14.25 10.3h-46.27c-14.25 0-14.25 0-14.25-10.3s0-10.3 14.25-10.3z" fill="#c92d39"/><path d="M557.4 582.42h39.38v42.5H557.4v-42.5z" fill="#c92d39"/><path d="M557.4 623.3h17.77v46.85H557.4V623.3zM580.27 623.75h16.5v46.1h-16.5v-46.1zM540.15 572.85h13.5v41.03h-13.5v-41.03zM601.05 573.43h13.65v41.04h-13.65v-41.04z" fill="#c92d39"/><use xlink:href="#s" transform="matrix(1,0,0,1,510,670) translate(26.79012345679012 19.444444444444443)"/><path d="M539.15 597.5h-27.27" stroke="#333" stroke-width="2" fill="none"/><path d="M540.15 598.5h-1.03v-2h1.03zM511.9 598.5h-1.02v-2h1.02z" fill="#333"/><path d="M577.55 423.6l2.53 2.54.92 3.42v435.4l-.92 3.42-2.53 2.53-3.42.93h-86.1v-2h85.84l2.64-.7 1.8-1.8.7-2.63V429.82l-.7-2.64-1.8-1.78-2.63-.7h-28.52v-2h28.78zM544.35 428.33l-14.26-4.64 14.25-4.65z" fill="#c92d39"/><path d="M545.35 429.7l-18.5-6 18.5-6.02zm-12.03-6l10.03 3.25v-6.52zM487.04 875.47l-14.27-4.64 14.27-4.63z" fill="#c92d39"/><path d="M488.04 876.85l-18.5-6.02 18.5-6zM476 870.83l10.04 3.26v-6.53z" fill="#c92d39"/><defs><path fill="#333" d="M114-163C36-179 61-72 57 0H25l-1-190h30c1 12-1 29 2 39 6-27 23-49 58-41v29" id="t"/><path fill="#333" d="M101-251c68 0 85 55 85 127S166 4 100 4C33 4 14-52 14-124c0-73 17-127 87-127zm-1 229c47 0 54-49 54-102s-4-102-53-102c-51 0-55 48-55 102 0 53 5 102 54 102" id="u"/><g id="a"><use transform="matrix(0.08024691358024691,0,0,0.08024691358024691,0,0)" xlink:href="#t"/><use transform="matrix(0.08024691358024691,0,0,0.08024691358024691,9.549382716049383,0)" xlink:href="#u"/></g><path fill="#333" d="M27 0v-27h64v-190l-56 39v-29l58-41h29v221h61V0H27" id="v"/><path fill="#333" d="M99-251c64 0 84 50 84 122C183-37 130 33 47-8c-14-7-20-23-25-40l30-5c6 39 69 39 84 7 9-19 16-44 16-74-10 22-31 35-62 35-49 0-73-33-73-83 0-54 28-83 82-83zm-1 141c31-1 51-18 51-49 0-36-14-67-51-67-34 0-49 23-49 58 0 34 15 58 49 58" id="w"/><path fill="#333" d="M101-251c82-7 93 87 43 132L82-64C71-53 59-42 53-27h129V0H18c2-99 128-94 128-182 0-28-16-43-45-43s-46 15-49 41l-32-3c6-41 34-60 81-64" id="x"/><path fill="#333" d="M33 0v-38h34V0H33" id="y"/><path fill="#333" d="M110-160c48 1 74 30 74 79 0 53-28 85-80 85-65 0-83-55-86-122-5-90 50-162 133-122 14 7 22 21 27 39l-31 6c-5-40-67-38-82-6-9 19-15 44-15 74 11-20 30-34 60-33zm-7 138c34 0 49-23 49-58s-16-56-50-56c-29 0-50 16-49 49 1 36 15 65 50 65" id="z"/><path fill="#333" d="M134-131c28 9 52 24 51 62-1 50-34 73-85 73S17-19 16-69c0-36 21-54 49-61-75-25-45-126 34-121 46 3 78 18 79 63 0 33-17 51-44 57zm-34-11c31 1 46-15 46-44 0-28-17-43-47-42-29 0-46 13-45 42 1 28 16 44 46 44zm1 122c35 0 51-18 51-52 0-30-18-46-53-46-33 0-51 17-51 47 0 34 19 51 53 51" id="A"/><g id="b"><use transform="matrix(0.08024691358024691,0,0,0.08024691358024691,0,0)" xlink:href="#v"/><use transform="matrix(0.08024691358024691,0,0,0.08024691358024691,16.049382716049383,0)" xlink:href="#w"/><use transform="matrix(0.08024691358024691,0,0,0.08024691358024691,32.098765432098766,0)" xlink:href="#x"/><use transform="matrix(0.08024691358024691,0,0,0.08024691358024691,48.14814814814815,0)" xlink:href="#y"/><use transform="matrix(0.08024691358024691,0,0,0.08024691358024691,56.17283950617284,0)" xlink:href="#v"/><use transform="matrix(0.08024691358024691,0,0,0.08024691358024691,72.22222222222223,0)" xlink:href="#z"/><use transform="matrix(0.08024691358024691,0,0,0.08024691358024691,88.2716049382716,0)" xlink:href="#A"/><use transform="matrix(0.08024691358024691,0,0,0.08024691358024691,104.32098765432099,0)" xlink:href="#y"/><use transform="matrix(0.08024691358024691,0,0,0.08024691358024691,112.34567901234568,0)" xlink:href="#v"/><use transform="matrix(0.08024691358024691,0,0,0.08024691358024691,128.39506172839506,0)" xlink:href="#y"/><use transform="matrix(0.08024691358024691,0,0,0.08024691358024691,136.41975308641975,0)" xlink:href="#v"/></g><path fill="#333" d="M115-194c55 1 70 41 70 98S169 2 115 4C84 4 66-9 55-30l1 105H24l-1-265h31l2 30c10-21 28-34 59-34zm-8 174c40 0 45-34 45-75s-6-73-45-74c-42 0-51 32-51 76 0 43 10 73 51 73" id="B"/><path fill="#333" d="M24 0v-261h32V0H24" id="C"/><path fill="#333" d="M96-169c-40 0-48 33-48 73s9 75 48 75c24 0 41-14 43-38l32 2c-6 37-31 61-74 61-59 0-76-41-82-99-10-93 101-131 147-64 4 7 5 14 7 22l-32 3c-4-21-16-35-41-35" id="D"/><g id="c"><use transform="matrix(0.08024691358024691,0,0,0.08024691358024691,0,0)" xlink:href="#B"/><use transform="matrix(0.08024691358024691,0,0,0.08024691358024691,16.049382716049383,0)" xlink:href="#C"/><use transform="matrix(0.08024691358024691,0,0,0.08024691358024691,22.38888888888889,0)" xlink:href="#D"/><use transform="matrix(0.08024691358024691,0,0,0.08024691358024691,36.83333333333333,0)" xlink:href="#v"/></g><g id="d"><use transform="matrix(0.08024691358024691,0,0,0.08024691358024691,0,0)" xlink:href="#t"/><use transform="matrix(0.08024691358024691,0,0,0.08024691358024691,9.549382716049383,0)" xlink:href="#x"/></g><path fill="#333" d="M135-143c-3-34-86-38-87 0 15 53 115 12 119 90S17 21 10-45l28-5c4 36 97 45 98 0-10-56-113-15-118-90-4-57 82-63 122-42 12 7 21 19 24 35" id="E"/><g id="e"><use transform="matrix(0.08024691358024691,0,0,0.08024691358024691,0,0)" xlink:href="#E"/><use transform="matrix(0.08024691358024691,0,0,0.08024691358024691,14.444444444444443,0)" xlink:href="#x"/></g><path fill="#333" d="M126-127c33 6 58 20 58 59 0 88-139 92-164 29-3-8-5-16-6-25l32-3c6 27 21 44 54 44 32 0 52-15 52-46 0-38-36-46-79-43v-28c39 1 72-4 72-42 0-27-17-43-46-43-28 0-47 15-49 41l-32-3c6-42 35-63 81-64 48-1 79 21 79 65 0 36-21 52-52 59" id="F"/><g id="f"><use transform="matrix(0.08024691358024691,0,0,0.08024691358024691,0,0)" xlink:href="#t"/><use transform="matrix(0.08024691358024691,0,0,0.08024691358024691,9.549382716049383,0)" xlink:href="#F"/></g><g id="g"><use transform="matrix(0.08024691358024691,0,0,0.08024691358024691,0,0)" xlink:href="#t"/><use transform="matrix(0.08024691358024691,0,0,0.08024691358024691,9.549382716049383,0)" xlink:href="#v"/></g><g id="h"><use transform="matrix(0.08024691358024691,0,0,0.08024691358024691,0,0)" xlink:href="#E"/><use transform="matrix(0.08024691358024691,0,0,0.08024691358024691,14.444444444444443,0)" xlink:href="#F"/></g><g id="i"><use transform="matrix(0.08024691358024691,0,0,0.08024691358024691,0,0)" xlink:href="#B"/><use transform="matrix(0.08024691358024691,0,0,0.08024691358024691,16.049382716049383,0)" xlink:href="#C"/><use transform="matrix(0.08024691358024691,0,0,0.08024691358024691,22.38888888888889,0)" xlink:href="#D"/><use transform="matrix(0.08024691358024691,0,0,0.08024691358024691,36.83333333333333,0)" xlink:href="#x"/></g><g id="j"><use transform="matrix(0.08024691358024691,0,0,0.08024691358024691,0,0)" xlink:href="#E"/><use transform="matrix(0.08024691358024691,0,0,0.08024691358024691,14.444444444444443,0)" xlink:href="#v"/></g><g id="k"><use transform="matrix(0.08024691358024691,0,0,0.08024691358024691,0,0)" xlink:href="#v"/><use transform="matrix(0.08024691358024691,0,0,0.08024691358024691,16.049382716049383,0)" xlink:href="#u"/><use transform="matrix(0.08024691358024691,0,0,0.08024691358024691,32.098765432098766,0)" xlink:href="#y"/><use transform="matrix(0.08024691358024691,0,0,0.08024691358024691,40.123456790123456,0)" xlink:href="#u"/><use transform="matrix(0.08024691358024691,0,0,0.08024691358024691,56.172839506172835,0)" xlink:href="#y"/><use transform="matrix(0.08024691358024691,0,0,0.08024691358024691,64.19753086419753,0)" xlink:href="#F"/><use transform="matrix(0.08024691358024691,0,0,0.08024691358024691,80.24691358024691,0)" xlink:href="#y"/><use transform="matrix(0.08024691358024691,0,0,0.08024691358024691,88.2716049382716,0)" xlink:href="#v"/></g><path fill="#333" d="M54-142c48-35 137-8 131 61C196 18 31 33 14-55l32-4c7 23 22 37 52 37 35-1 51-22 54-58 4-55-73-65-99-34H22l8-134h141v27H59" id="G"/><path fill="#333" d="M155-56V0h-30v-56H8v-25l114-167h33v167h35v25h-35zm-30-156c-27 46-58 90-88 131h88v-131" id="H"/><g id="l"><use transform="matrix(0.08024691358024691,0,0,0.08024691358024691,0,0)" xlink:href="#v"/><use transform="matrix(0.08024691358024691,0,0,0.08024691358024691,16.049382716049383,0)" xlink:href="#u"/><use transform="matrix(0.08024691358024691,0,0,0.08024691358024691,32.098765432098766,0)" xlink:href="#y"/><use transform="matrix(0.08024691358024691,0,0,0.08024691358024691,40.123456790123456,0)" xlink:href="#u"/><use transform="matrix(0.08024691358024691,0,0,0.08024691358024691,56.172839506172835,0)" xlink:href="#y"/><use transform="matrix(0.08024691358024691,0,0,0.08024691358024691,64.19753086419753,0)" xlink:href="#F"/><use transform="matrix(0.08024691358024691,0,0,0.08024691358024691,80.24691358024691,0)" xlink:href="#y"/><use transform="matrix(0.08024691358024691,0,0,0.08024691358024691,88.2716049382716,0)" xlink:href="#x"/><use transform="matrix(0.08024691358024691,0,0,0.08024691358024691,104.32098765432099,0)" xlink:href="#G"/><use transform="matrix(0.08024691358024691,0,0,0.08024691358024691,120.37037037037037,0)" xlink:href="#H"/></g><g id="m"><use transform="matrix(0.08024691358024691,0,0,0.08024691358024691,0,0)" xlink:href="#v"/><use transform="matrix(0.08024691358024691,0,0,0.08024691358024691,16.049382716049383,0)" xlink:href="#w"/><use transform="matrix(0.08024691358024691,0,0,0.08024691358024691,32.098765432098766,0)" xlink:href="#x"/><use transform="matrix(0.08024691358024691,0,0,0.08024691358024691,48.14814814814815,0)" xlink:href="#y"/><use transform="matrix(0.08024691358024691,0,0,0.08024691358024691,56.17283950617284,0)" xlink:href="#v"/><use transform="matrix(0.08024691358024691,0,0,0.08024691358024691,72.22222222222223,0)" xlink:href="#z"/><use transform="matrix(0.08024691358024691,0,0,0.08024691358024691,88.2716049382716,0)" xlink:href="#A"/><use transform="matrix(0.08024691358024691,0,0,0.08024691358024691,104.32098765432099,0)" xlink:href="#y"/><use transform="matrix(0.08024691358024691,0,0,0.08024691358024691,112.34567901234568,0)" xlink:href="#v"/><use transform="matrix(0.08024691358024691,0,0,0.08024691358024691,128.39506172839506,0)" xlink:href="#y"/><use transform="matrix(0.08024691358024691,0,0,0.08024691358024691,136.41975308641975,0)" xlink:href="#x"/><use transform="matrix(0.08024691358024691,0,0,0.08024691358024691,152.46913580246914,0)" xlink:href="#G"/><use transform="matrix(0.08024691358024691,0,0,0.08024691358024691,168.51851851851853,0)" xlink:href="#H"/></g><path fill="#333" d="M141-36C126-15 110 5 73 4 37 3 15-17 15-53c-1-64 63-63 125-63 3-35-9-54-41-54-24 1-41 7-42 31l-33-3c5-37 33-52 76-52 45 0 72 20 72 64v82c-1 20 7 32 28 27v20c-31 9-61-2-59-35zM48-53c0 20 12 33 32 33 41-3 63-29 60-74-43 2-92-5-92 41" id="I"/><path fill="#333" d="M85-194c31 0 48 13 60 33l-1-100h32l1 261h-30c-2-10 0-23-3-31C134-8 116 4 85 4 32 4 16-35 15-94c0-66 23-100 70-100zm9 24c-40 0-46 34-46 75 0 40 6 74 45 74 42 0 51-32 51-76 0-42-9-74-50-73" id="J"/><g id="n"><use transform="matrix(0.08024691358024691,0,0,0.08024691358024691,0,0)" xlink:href="#E"/><use transform="matrix(0.08024691358024691,0,0,0.08024691358024691,14.444444444444443,0)" xlink:href="#D"/><use transform="matrix(0.08024691358024691,0,0,0.08024691358024691,28.888888888888886,0)" xlink:href="#I"/><use transform="matrix(0.08024691358024691,0,0,0.08024691358024691,44.93827160493827,0)" xlink:href="#J"/><use transform="matrix(0.08024691358024691,0,0,0.08024691358024691,60.987654320987644,0)" xlink:href="#I"/></g><g id="o"><use transform="matrix(0.08024691358024691,0,0,0.08024691358024691,0,0)" xlink:href="#v"/><use transform="matrix(0.08024691358024691,0,0,0.08024691358024691,16.049382716049383,0)" xlink:href="#u"/><use transform="matrix(0.08024691358024691,0,0,0.08024691358024691,32.098765432098766,0)" xlink:href="#y"/><use transform="matrix(0.08024691358024691,0,0,0.08024691358024691,40.123456790123456,0)" xlink:href="#u"/><use transform="matrix(0.08024691358024691,0,0,0.08024691358024691,56.172839506172835,0)" xlink:href="#y"/><use transform="matrix(0.08024691358024691,0,0,0.08024691358024691,64.19753086419753,0)" xlink:href="#v"/><use transform="matrix(0.08024691358024691,0,0,0.08024691358024691,80.24691358024691,0)" xlink:href="#y"/><use transform="matrix(0.08024691358024691,0,0,0.08024691358024691,88.2716049382716,0)" xlink:href="#x"/><use transform="matrix(0.08024691358024691,0,0,0.08024691358024691,104.32098765432099,0)" xlink:href="#G"/><use transform="matrix(0.08024691358024691,0,0,0.08024691358024691,120.37037037037037,0)" xlink:href="#H"/></g><g id="p"><use transform="matrix(0.08024691358024691,0,0,0.08024691358024691,0,0)" xlink:href="#v"/><use transform="matrix(0.08024691358024691,0,0,0.08024691358024691,16.049382716049383,0)" xlink:href="#u"/><use transform="matrix(0.08024691358024691,0,0,0.08024691358024691,32.098765432098766,0)" xlink:href="#y"/><use transform="matrix(0.08024691358024691,0,0,0.08024691358024691,40.123456790123456,0)" xlink:href="#u"/><use transform="matrix(0.08024691358024691,0,0,0.08024691358024691,56.172839506172835,0)" xlink:href="#y"/><use transform="matrix(0.08024691358024691,0,0,0.08024691358024691,64.19753086419753,0)" xlink:href="#v"/><use transform="matrix(0.08024691358024691,0,0,0.08024691358024691,80.24691358024691,0)" xlink:href="#y"/><use transform="matrix(0.08024691358024691,0,0,0.08024691358024691,88.2716049382716,0)" xlink:href="#v"/></g><g id="q"><use transform="matrix(0.08024691358024691,0,0,0.08024691358024691,0,0)" xlink:href="#v"/><use transform="matrix(0.08024691358024691,0,0,0.08024691358024691,16.049382716049383,0)" xlink:href="#u"/><use transform="matrix(0.08024691358024691,0,0,0.08024691358024691,32.098765432098766,0)" xlink:href="#y"/><use transform="matrix(0.08024691358024691,0,0,0.08024691358024691,40.123456790123456,0)" xlink:href="#u"/><use transform="matrix(0.08024691358024691,0,0,0.08024691358024691,56.172839506172835,0)" xlink:href="#y"/><use transform="matrix(0.08024691358024691,0,0,0.08024691358024691,64.19753086419753,0)" xlink:href="#x"/><use transform="matrix(0.08024691358024691,0,0,0.08024691358024691,80.24691358024691,0)" xlink:href="#y"/><use transform="matrix(0.08024691358024691,0,0,0.08024691358024691,88.2716049382716,0)" xlink:href="#x"/><use transform="matrix(0.08024691358024691,0,0,0.08024691358024691,104.32098765432099,0)" xlink:href="#G"/><use transform="matrix(0.08024691358024691,0,0,0.08024691358024691,120.37037037037037,0)" xlink:href="#H"/></g><g id="r"><use transform="matrix(0.08024691358024691,0,0,0.08024691358024691,0,0)" xlink:href="#v"/><use transform="matrix(0.08024691358024691,0,0,0.08024691358024691,16.049382716049383,0)" xlink:href="#u"/><use transform="matrix(0.08024691358024691,0,0,0.08024691358024691,32.098765432098766,0)" xlink:href="#y"/><use transform="matrix(0.08024691358024691,0,0,0.08024691358024691,40.123456790123456,0)" xlink:href="#u"/><use transform="matrix(0.08024691358024691,0,0,0.08024691358024691,56.172839506172835,0)" xlink:href="#y"/><use transform="matrix(0.08024691358024691,0,0,0.08024691358024691,64.19753086419753,0)" xlink:href="#x"/><use transform="matrix(0.08024691358024691,0,0,0.08024691358024691,80.24691358024691,0)" xlink:href="#y"/><use transform="matrix(0.08024691358024691,0,0,0.08024691358024691,88.2716049382716,0)" xlink:href="#v"/></g><path fill="#333" d="M205 0l-28-72H64L36 0H1l101-248h38L239 0h-34zm-38-99l-47-123c-12 45-31 82-46 123h93" id="K"/><path fill="#333" d="M59-47c-2 24 18 29 38 22v24C64 9 27 4 27-40v-127H5v-23h24l9-43h21v43h35v23H59v120" id="L"/><path fill="#333" d="M143 0L79-87 56-68V0H24v-261h32v163l83-92h37l-77 82L181 0h-38" id="M"/><path fill="#333" d="M100-194c63 0 86 42 84 106H49c0 40 14 67 53 68 26 1 43-12 49-29l28 8c-11 28-37 45-77 45C44 4 14-33 15-96c1-61 26-98 85-98zm52 81c6-60-76-77-97-28-3 7-6 17-6 28h103" id="N"/><g id="s"><use transform="matrix(0.06172839506172839,0,0,0.06172839506172839,0,0)" xlink:href="#K"/><use transform="matrix(0.06172839506172839,0,0,0.06172839506172839,14.814814814814813,0)" xlink:href="#L"/><use transform="matrix(0.06172839506172839,0,0,0.06172839506172839,20.98765432098765,0)" xlink:href="#L"/><use transform="matrix(0.06172839506172839,0,0,0.06172839506172839,27.16049382716049,0)" xlink:href="#I"/><use transform="matrix(0.06172839506172839,0,0,0.06172839506172839,39.50617283950617,0)" xlink:href="#D"/><use transform="matrix(0.06172839506172839,0,0,0.06172839506172839,50.61728395061728,0)" xlink:href="#M"/><use transform="matrix(0.06172839506172839,0,0,0.06172839506172839,61.72839506172839,0)" xlink:href="#N"/><use transform="matrix(0.06172839506172839,0,0,0.06172839506172839,74.07407407407408,0)" xlink:href="#t"/></g></defs></g></svg>