<svg xmlns="http://www.w3.org/2000/svg" xmlns:xlink="http://www.w3.org/1999/xlink" xmlns:lucid="lucid" width="885" height="951.67"><g transform="translate(-60 -60)" lucid:page-tab-id="okjEjyASguIu"><path d="M403 144.44h149.85V191H403v-46.56z" fill="#29aae1"/><path d="M410.2 196.28h135.45v3.6H410.2v-3.6z" fill="#2188b4"/><path d="M410.05 162.2H424v5.88h-13.95v-5.88z" fill="#fff"/><path d="M416.8 166.16c3.3 0 3.3 0 3.3 3.36v.6c0 3.24 0 3.24-3.3 3.24s-3.3 0-3.3-3.24v-.6c0-3.36 0-3.36 3.3-3.36zM431.5 162.2h13.95v5.88H431.5v-5.88z" fill="#fff"/><path d="M438.25 166.16c3.3 0 3.3 0 3.3 3.36v.6c0 3.24 0 3.24-3.3 3.24s-3.3 0-3.3-3.24v-.6c0-3.36 0-3.36 3.3-3.36zM454.15 162.2h13.95v5.88h-13.95v-5.88z" fill="#fff"/><path d="M460.9 166.16c3.3 0 3.3 0 3.3 3.36v.6c0 3.24 0 3.24-3.3 3.24s-3.3 0-3.3-3.24v-.6c0-3.36 0-3.36 3.3-3.36zM476.2 162.2h13.95v5.88H476.2v-5.88z" fill="#fff"/><path d="M482.95 166.16c3.3 0 3.3 0 3.3 3.36v.6c0 3.24 0 3.24-3.3 3.24s-3.3 0-3.3-3.24v-.6c0-3.36 0-3.36 3.3-3.36z" fill="#fff"/><path d="M537.85 113.96c5.7 1.08 5.7 1.08 4.65 6.6l-5.4 27.48c-1.05 5.64-1.05 5.64-6.75 4.56-5.55-1.08-5.55-1.08-4.5-6.6l5.25-27.6c1.2-5.52 1.2-5.52 6.75-4.44z" fill="#29aae1"/><path d="M543.85 83.48c3.45.72 3.45.72 2.85 4.08l-5.7 28.68c-.6 3.36-.6 3.36-4.05 2.76-3.6-.72-3.6-.72-2.85-4.08l5.55-28.68c.6-3.36.6-3.36 4.2-2.76z" fill="#29aae1"/><path d="M507.55 148.04h40.2v37.92h-40.2v-37.92z" fill="#fff"/><path d="M508.9 149.36h37.35v35.16H508.9v-35.16z" fill="#54bbe7"/><path d="M526.9 151.04l-4.5 4.68h2.4l.15 6.48h4.65l-.45-6.48h2.4l-4.65-4.68zM527.65 181.76l4.5-4.44-2.25-.12-.15-6.48-4.65-.12.45 6.48H523l4.65 4.68zM529.3 166.76l4.5 4.68.15-2.28h6.45l.3-4.56-6.6.24v-1.68l.15-.72-4.95 4.32zM525.4 166.76l-4.5-4.56-.15 2.28-6.45-.12-.3 4.56 6.6-.24v1.8l-.15.72 4.95-4.44z" fill="#fff"/><path d="M417.7 111.56c5.55-1.08 5.55-1.08 6.6 4.44l5.4 27.48c1.2 5.64 1.2 5.64-4.5 6.72s-5.7 1.08-6.75-4.56l-5.4-27.48c-1.05-5.52-1.05-5.52 4.65-6.6z" fill="#29aae1"/><path d="M411.7 81.08c3.45-.72 3.45-.72 4.2 2.76l5.55 28.68c.6 3.36.6 3.36-2.85 4.08-3.45.6-3.45.6-4.05-2.76l-5.7-28.68c-.6-3.48-.6-3.48 2.85-4.08z" fill="#29aae1"/><path d="M363 126c0-3.3 2.7-6 6-6h28c3.3 0 6 2.7 6 6v28c0 3.3-2.7 6-6 6h-28c-3.3 0-6-2.7-6-6z" stroke="#000" stroke-opacity="0" stroke-width="3" fill="#fff" fill-opacity="0"/><use xlink:href="#a" transform="matrix(1,0,0,1,368,125) translate(5.154320987654321 19.65277777777778)"/><path d="M436.52 640.96v188.87" stroke="#333" stroke-width="2" fill="none"/><path d="M437.52 640.98h-2v-1.02h2zm0-3.95h-2v-.07h2zM437.52 830.83h-2v-1.02h2z" fill="#333"/><path d="M140 830.83h70.07v120.12H140V830.83z" fill="#29aae1"/><path d="M166.74 914.23h35.63c1.12 0 1.12 0 1.12 1.2 0 1.08 0 1.08-1.13 1.08h-35.63c-1.2 0-1.2 0-1.2-1.07 0-1.2 0-1.2 1.2-1.2zM166.8 920.35h35.5c1.54 0 1.54 0 1.54 1.56v.37c0 1.56 0 1.56-1.54 1.56h-35.5c-1.6 0-1.6 0-1.6-1.56v-.36c0-1.55 0-1.55 1.6-1.55zM166.95 927.9h35.56c1.55 0 1.55 0 1.55 1.57v.36c0 1.56 0 1.56-1.54 1.56h-35.55c-1.54 0-1.54 0-1.54-1.57v-.36c0-1.56 0-1.56 1.55-1.56zM199.36 889.15c0 3.12-2.52 5.64-5.74 5.64s-5.8-2.53-5.8-5.65c0-3.12 2.58-5.64 5.8-5.64 3.22 0 5.74 2.53 5.74 5.65z" fill="#fff"/><path d="M197.05 889.15c0 1.92-1.54 3.48-3.5 3.48s-3.57-1.56-3.57-3.48 1.6-3.48 3.57-3.48c1.96 0 3.5 1.56 3.5 3.48z" fill="#54bbe7"/><use xlink:href="#b" transform="matrix(1,0,0,1,110,950.833333333314) translate(44.660493827160494 19.444444444444443)"/><path d="M180 785.17c0-3.32 2.7-6 6-6h128c3.3 0 6 2.68 6 6v51.33c0 3.3-2.7 6-6 6H186c-3.3 0-6-2.7-6-6z" stroke="#000" stroke-opacity="0" stroke-width="3" fill="#fff" fill-opacity="0"/><use xlink:href="#c" transform="matrix(1,0,0,1,185,784.1666666666474) translate(0 31.27777777777778)"/><path d="M120 418.2h149.85v46.55H120V418.2z" fill="#29aae1"/><path d="M127.2 470.03h135.45v3.6H127.2v-3.6z" fill="#2188b4"/><path d="M127.05 435.95H141v5.88h-13.95v-5.88z" fill="#fff"/><path d="M133.8 439.9c3.3 0 3.3 0 3.3 3.37v.6c0 3.24 0 3.24-3.3 3.24s-3.3 0-3.3-3.23v-.6c0-3.36 0-3.36 3.3-3.36zM148.5 435.95h13.95v5.88H148.5v-5.88z" fill="#fff"/><path d="M155.25 439.9c3.3 0 3.3 0 3.3 3.37v.6c0 3.24 0 3.24-3.3 3.24s-3.3 0-3.3-3.23v-.6c0-3.36 0-3.36 3.3-3.36zM171.15 435.95h13.95v5.88h-13.95v-5.88z" fill="#fff"/><path d="M177.9 439.9c3.3 0 3.3 0 3.3 3.37v.6c0 3.24 0 3.24-3.3 3.24s-3.3 0-3.3-3.23v-.6c0-3.36 0-3.36 3.3-3.36zM193.2 435.95h13.95v5.88H193.2v-5.88z" fill="#fff"/><path d="M199.95 439.9c3.3 0 3.3 0 3.3 3.37v.6c0 3.24 0 3.24-3.3 3.24s-3.3 0-3.3-3.23v-.6c0-3.36 0-3.36 3.3-3.36z" fill="#fff"/><path d="M254.85 387.7c5.7 1.1 5.7 1.1 4.65 6.6l-5.4 27.5c-1.05 5.63-1.05 5.63-6.75 4.55-5.55-1.08-5.55-1.08-4.5-6.6l5.25-27.6c1.2-5.52 1.2-5.52 6.75-4.44z" fill="#29aae1"/><path d="M260.85 357.23c3.45.72 3.45.72 2.85 4.08L258 390c-.6 3.35-.6 3.35-4.05 2.75-3.6-.72-3.6-.72-2.85-4.08l5.55-28.68c.6-3.37.6-3.37 4.2-2.77z" fill="#29aae1"/><path d="M224.55 421.8h40.2v37.9h-40.2v-37.9z" fill="#fff"/><path d="M225.9 423.1h37.35v35.17H225.9V423.1z" fill="#54bbe7"/><path d="M243.9 424.8l-4.5 4.67h2.4l.15 6.48h4.65l-.45-6.48h2.4l-4.65-4.68zM244.65 455.5l4.5-4.43-2.25-.12-.15-6.48-4.65-.12.45 6.48H240l4.65 4.68zM246.3 440.5l4.5 4.7.15-2.3h6.45l.3-4.55-6.6.24v-1.7l.15-.7-4.95 4.3zM242.4 440.5l-4.5-4.55-.15 2.28-6.45-.12-.3 4.57 6.6-.24v1.8l-.15.72 4.95-4.44z" fill="#fff"/><path d="M134.7 385.3c5.55-1.07 5.55-1.07 6.6 4.45l5.4 27.48c1.2 5.64 1.2 5.64-4.5 6.72s-5.7 1.08-6.75-4.56l-5.4-27.5c-1.05-5.5-1.05-5.5 4.65-6.6z" fill="#29aae1"/><path d="M128.7 354.83c3.45-.72 3.45-.72 4.2 2.76l5.55 28.67c.6 3.36.6 3.36-2.85 4.08-3.45.6-3.45.6-4.05-2.76l-5.7-28.7c-.6-3.47-.6-3.47 2.85-4.07z" fill="#29aae1"/><path d="M80 408.08c0-3.3 2.7-6 6-6h28c3.3 0 6 2.7 6 6v51.34c0 3.3-2.7 6-6 6H86c-3.3 0-6-2.7-6-6z" stroke="#000" stroke-opacity="0" stroke-width="3" fill="#fff" fill-opacity="0"/><use xlink:href="#d" transform="matrix(1,0,0,1,85,407.0833333333333) translate(5.154320987654321 31.27777777777778)"/><path d="M223 479.75c0-3.3 2.7-6 6-6h128c3.3 0 6 2.7 6 6v28c0 3.3-2.7 6-6 6H229c-3.3 0-6-2.7-6-6z" stroke="#000" stroke-opacity="0" stroke-width="3" fill="#fff" fill-opacity="0"/><use xlink:href="#e" transform="matrix(1,0,0,1,228,478.75) translate(0 19.444444444444443)"/><path d="M223 326c0-3.3 2.7-6 6-6h128c3.3 0 6 2.7 6 6v28c0 3.3-2.7 6-6 6H229c-3.3 0-6-2.7-6-6z" stroke="#000" stroke-opacity="0" stroke-width="3" fill="#fff" fill-opacity="0"/><use xlink:href="#f" transform="matrix(1,0,0,1,228,325) translate(0 19.65277777777778)"/><path d="M130 595h124.88v37.7H130V595z" fill="#29aae1"/><path d="M136 637.03h112.88v2.93H136v-2.93z" fill="#2188b4"/><path d="M139 601.66h11.5v4.86H139v-4.86z" fill="#fff"/><path d="M144.5 604.95c2.88 0 2.88 0 2.88 2.65v.5c0 2.65 0 2.65-2.88 2.65-2.75 0-2.75 0-2.75-2.65v-.5c0-2.65 0-2.65 2.75-2.65zM156.88 601.66h11.5v4.86h-11.5v-4.86z" fill="#fff"/><path d="M162.5 604.95c2.75 0 2.75 0 2.75 2.65v.5c0 2.65 0 2.65-2.75 2.65-2.88 0-2.88 0-2.88-2.65v-.5c0-2.65 0-2.65 2.88-2.65zM175.75 601.66h11.5v4.86h-11.5v-4.86z" fill="#fff"/><path d="M181.38 604.95c2.75 0 2.75 0 2.75 2.65v.5c0 2.65 0 2.65-2.75 2.65-2.88 0-2.88 0-2.88-2.65v-.5c0-2.65 0-2.65 2.88-2.65zM194 601.66h11.63v4.86H194v-4.86z" fill="#fff"/><path d="M199.63 604.95c2.75 0 2.75 0 2.75 2.65v.5c0 2.65 0 2.65-2.75 2.65s-2.75 0-2.75-2.65v-.5c0-2.65 0-2.65 2.75-2.65zM217.13 597.92h33.5v30.74h-33.5v-30.74z" fill="#fff"/><path d="M218.25 598.96h31.13v28.53h-31.13v-28.54z" fill="#54bbe7"/><path d="M139.25 616.83h11.63v4.8h-11.63v-4.8z" fill="#fff"/><path d="M144.88 620.07c2.75 0 2.75 0 2.75 2.65v.5c0 2.65 0 2.65-2.75 2.65s-2.75 0-2.75-2.65v-.5c0-2.65 0-2.65 2.75-2.65zM157.13 616.83h11.62v4.8h-11.63v-4.8z" fill="#fff"/><path d="M162.75 620.07c2.75 0 2.75 0 2.75 2.65v.5c0 2.65 0 2.65-2.75 2.65s-2.75 0-2.75-2.65v-.5c0-2.65 0-2.65 2.75-2.65zM176 616.83h11.63v4.8H176v-4.8z" fill="#fff"/><path d="M181.63 620.07c2.75 0 2.75 0 2.75 2.65v.5c0 2.65 0 2.65-2.75 2.65s-2.75 0-2.75-2.65v-.5c0-2.65 0-2.65 2.75-2.65zM194.38 616.83H206v4.8h-11.63v-4.8z" fill="#fff"/><path d="M200 620.07c2.75 0 2.75 0 2.75 2.65v.5c0 2.65 0 2.65-2.75 2.65s-2.75 0-2.75-2.65v-.5c0-2.65 0-2.65 2.75-2.65zM221.75 600.26l-3.13 3.07 3.25 3-.12-6.07zM221.75 620.25l-3.13 3.05 3.13 3.02v-6.08zM245.63 626.37l3.12-3.02-3.13-3.06v6.07zM245.75 606.48l3.13-3.02-3.13-3.06v6.08z" fill="#fff"/><path d="M221.5 602.07h4.75v2.42h-4.75v-2.43zM241.5 602.3h4.63v2.42h-4.63v-2.43zM221.5 622.04h4.63v2.44h-4.63v-2.44zM241.38 622.23H246v2.42h-4.63v-2.42z" fill="#fff"/><path d="M224 603.68l2.13-1.6 17.37 20.95-2.13 1.63L224 603.67z" fill="#fff"/><path d="M241.5 602.3l2 1.75-17.38 20.47-2.12-1.75 17.5-20.48z" fill="#fff"/><path d="M234.13 610.9l2 2.46-.38.27-2-2.48.38-.26zM231.88 613.23l2 2.47-.38.27-2-2.48.38-.27z" fill="#54bbe7"/><path d="M90 601c0-3.3 2.7-6 6-6h28c3.3 0 6 2.7 6 6v28c0 3.3-2.7 6-6 6H96c-3.3 0-6-2.7-6-6z" stroke="#000" stroke-opacity="0" stroke-width="3" fill="#fff" fill-opacity="0"/><use xlink:href="#g" transform="matrix(1,0,0,1,95,600) translate(3.2716049382716044 19.65277777777778)"/><path d="M397 418.2h149.85v46.55H397V418.2z" fill="#29aae1"/><path d="M404.2 470.03h135.45v3.6H404.2v-3.6z" fill="#2188b4"/><path d="M404.05 435.95H418v5.88h-13.95v-5.88z" fill="#fff"/><path d="M410.8 439.9c3.3 0 3.3 0 3.3 3.37v.6c0 3.24 0 3.24-3.3 3.24s-3.3 0-3.3-3.23v-.6c0-3.36 0-3.36 3.3-3.36zM425.5 435.95h13.95v5.88H425.5v-5.88z" fill="#fff"/><path d="M432.25 439.9c3.3 0 3.3 0 3.3 3.37v.6c0 3.24 0 3.24-3.3 3.24s-3.3 0-3.3-3.23v-.6c0-3.36 0-3.36 3.3-3.36zM448.15 435.95h13.95v5.88h-13.95v-5.88z" fill="#fff"/><path d="M454.9 439.9c3.3 0 3.3 0 3.3 3.37v.6c0 3.24 0 3.24-3.3 3.24s-3.3 0-3.3-3.23v-.6c0-3.36 0-3.36 3.3-3.36zM470.2 435.95h13.95v5.88H470.2v-5.88z" fill="#fff"/><path d="M476.95 439.9c3.3 0 3.3 0 3.3 3.37v.6c0 3.24 0 3.24-3.3 3.24s-3.3 0-3.3-3.23v-.6c0-3.36 0-3.36 3.3-3.36z" fill="#fff"/><path d="M531.85 387.7c5.7 1.1 5.7 1.1 4.65 6.6l-5.4 27.5c-1.05 5.63-1.05 5.63-6.75 4.55-5.55-1.08-5.55-1.08-4.5-6.6l5.25-27.6c1.2-5.52 1.2-5.52 6.75-4.44z" fill="#29aae1"/><path d="M537.85 357.23c3.45.72 3.45.72 2.85 4.08L535 390c-.6 3.35-.6 3.35-4.05 2.75-3.6-.72-3.6-.72-2.85-4.08l5.55-28.68c.6-3.37.6-3.37 4.2-2.77z" fill="#29aae1"/><path d="M501.55 421.8h40.2v37.9h-40.2v-37.9z" fill="#fff"/><path d="M502.9 423.1h37.35v35.17H502.9V423.1z" fill="#54bbe7"/><path d="M520.9 424.8l-4.5 4.67h2.4l.15 6.48h4.65l-.45-6.48h2.4l-4.65-4.68zM521.65 455.5l4.5-4.43-2.25-.12-.15-6.48-4.65-.12.45 6.48H517l4.65 4.68zM523.3 440.5l4.5 4.7.15-2.3h6.45l.3-4.55-6.6.24v-1.7l.15-.7-4.95 4.3zM519.4 440.5l-4.5-4.55-.15 2.28-6.45-.12-.3 4.57 6.6-.24v1.8l-.15.72 4.95-4.44z" fill="#fff"/><path d="M411.7 385.3c5.55-1.07 5.55-1.07 6.6 4.45l5.4 27.48c1.2 5.64 1.2 5.64-4.5 6.72s-5.7 1.08-6.75-4.56l-5.4-27.5c-1.05-5.5-1.05-5.5 4.65-6.6z" fill="#29aae1"/><path d="M405.7 354.83c3.45-.72 3.45-.72 4.2 2.76l5.55 28.67c.6 3.36.6 3.36-2.85 4.08-3.45.6-3.45.6-4.05-2.76l-5.7-28.7c-.6-3.47-.6-3.47 2.85-4.07z" fill="#29aae1"/><path d="M357 419.75c0-3.3 2.7-6 6-6h28c3.3 0 6 2.7 6 6v28c0 3.3-2.7 6-6 6h-28c-3.3 0-6-2.7-6-6z" stroke="#000" stroke-opacity="0" stroke-width="3" fill="#fff" fill-opacity="0"/><use xlink:href="#h" transform="matrix(1,0,0,1,362,418.75) translate(5.154320987654321 19.65277777777778)"/><path d="M500 479.75c0-3.3 2.7-6 6-6h128c3.3 0 6 2.7 6 6v28c0 3.3-2.7 6-6 6H506c-3.3 0-6-2.7-6-6z" stroke="#000" stroke-opacity="0" stroke-width="3" fill="#fff" fill-opacity="0"/><use xlink:href="#e" transform="matrix(1,0,0,1,505,478.75) translate(0 19.444444444444443)"/><path d="M500 319.75c0-3.3 2.7-6 6-6h128c3.3 0 6 2.7 6 6v28c0 3.3-2.7 6-6 6H506c-3.3 0-6-2.7-6-6z" stroke="#000" stroke-opacity="0" stroke-width="3" fill="#fff" fill-opacity="0"/><use xlink:href="#i" transform="matrix(1,0,0,1,505,318.75) translate(0 19.65277777777778)"/><path d="M674 418.2h149.85v46.55H674V418.2z" fill="#29aae1"/><path d="M681.2 470.03h135.45v3.6H681.2v-3.6z" fill="#2188b4"/><path d="M681.05 435.95H695v5.88h-13.95v-5.88z" fill="#fff"/><path d="M687.8 439.9c3.3 0 3.3 0 3.3 3.37v.6c0 3.24 0 3.24-3.3 3.24s-3.3 0-3.3-3.23v-.6c0-3.36 0-3.36 3.3-3.36zM702.5 435.95h13.95v5.88H702.5v-5.88z" fill="#fff"/><path d="M709.25 439.9c3.3 0 3.3 0 3.3 3.37v.6c0 3.24 0 3.24-3.3 3.24s-3.3 0-3.3-3.23v-.6c0-3.36 0-3.36 3.3-3.36zM725.15 435.95h13.95v5.88h-13.95v-5.88z" fill="#fff"/><path d="M731.9 439.9c3.3 0 3.3 0 3.3 3.37v.6c0 3.24 0 3.24-3.3 3.24s-3.3 0-3.3-3.23v-.6c0-3.36 0-3.36 3.3-3.36zM747.2 435.95h13.95v5.88H747.2v-5.88z" fill="#fff"/><path d="M753.95 439.9c3.3 0 3.3 0 3.3 3.37v.6c0 3.24 0 3.24-3.3 3.24s-3.3 0-3.3-3.23v-.6c0-3.36 0-3.36 3.3-3.36z" fill="#fff"/><path d="M808.85 387.7c5.7 1.1 5.7 1.1 4.65 6.6l-5.4 27.5c-1.05 5.63-1.05 5.63-6.75 4.55-5.55-1.08-5.55-1.08-4.5-6.6l5.25-27.6c1.2-5.52 1.2-5.52 6.75-4.44z" fill="#29aae1"/><path d="M814.85 357.23c3.45.72 3.45.72 2.85 4.08L812 390c-.6 3.35-.6 3.35-4.05 2.75-3.6-.72-3.6-.72-2.85-4.08l5.55-28.68c.6-3.37.6-3.37 4.2-2.77z" fill="#29aae1"/><path d="M778.55 421.8h40.2v37.9h-40.2v-37.9z" fill="#fff"/><path d="M779.9 423.1h37.35v35.17H779.9V423.1z" fill="#54bbe7"/><path d="M797.9 424.8l-4.5 4.67h2.4l.15 6.48h4.65l-.45-6.48h2.4l-4.65-4.68zM798.65 455.5l4.5-4.43-2.25-.12-.15-6.48-4.65-.12.45 6.48H794l4.65 4.68zM800.3 440.5l4.5 4.7.15-2.3h6.45l.3-4.55-6.6.24v-1.7l.15-.7-4.95 4.3zM796.4 440.5l-4.5-4.55-.15 2.28-6.45-.12-.3 4.57 6.6-.24v1.8l-.15.72 4.95-4.44z" fill="#fff"/><path d="M688.7 385.3c5.55-1.07 5.55-1.07 6.6 4.45l5.4 27.48c1.2 5.64 1.2 5.64-4.5 6.72s-5.7 1.08-6.75-4.56l-5.4-27.5c-1.05-5.5-1.05-5.5 4.65-6.6z" fill="#29aae1"/><path d="M682.7 354.83c3.45-.72 3.45-.72 4.2 2.76l5.55 28.67c.6 3.36.6 3.36-2.85 4.08-3.45.6-3.45.6-4.05-2.76l-5.7-28.7c-.6-3.47-.6-3.47 2.85-4.07z" fill="#29aae1"/><path d="M634 419.75c0-3.3 2.7-6 6-6h28c3.3 0 6 2.7 6 6v28c0 3.3-2.7 6-6 6h-28c-3.3 0-6-2.7-6-6z" stroke="#000" stroke-opacity="0" stroke-width="3" fill="#fff" fill-opacity="0"/><use xlink:href="#j" transform="matrix(1,0,0,1,639,418.75) translate(5.154320987654321 19.65277777777778)"/><path d="M777 479.75c0-3.3 2.7-6 6-6h128c3.3 0 6 2.7 6 6v28c0 3.3-2.7 6-6 6H783c-3.3 0-6-2.7-6-6z" stroke="#000" stroke-opacity="0" stroke-width="3" fill="#fff" fill-opacity="0"/><use xlink:href="#e" transform="matrix(1,0,0,1,782,478.75) translate(0 19.444444444444443)"/><path d="M777 319.75c0-3.3 2.7-6 6-6h128c3.3 0 6 2.7 6 6v28c0 3.3-2.7 6-6 6H783c-3.3 0-6-2.7-6-6z" stroke="#000" stroke-opacity="0" stroke-width="3" fill="#fff" fill-opacity="0"/><use xlink:href="#k" transform="matrix(1,0,0,1,781.9999999999798,318.75) translate(0 19.65277777777778)"/><path d="M406 595h124.88v37.7H406V595z" fill="#29aae1"/><path d="M412 637.03h112.88v2.93H412v-2.93z" fill="#2188b4"/><path d="M415 601.66h11.5v4.86H415v-4.86z" fill="#fff"/><path d="M420.5 604.95c2.88 0 2.88 0 2.88 2.65v.5c0 2.65 0 2.65-2.88 2.65-2.75 0-2.75 0-2.75-2.65v-.5c0-2.65 0-2.65 2.75-2.65zM432.88 601.66h11.5v4.86h-11.5v-4.86z" fill="#fff"/><path d="M438.5 604.95c2.75 0 2.75 0 2.75 2.65v.5c0 2.65 0 2.65-2.75 2.65-2.88 0-2.88 0-2.88-2.65v-.5c0-2.65 0-2.65 2.88-2.65zM451.75 601.66h11.5v4.86h-11.5v-4.86z" fill="#fff"/><path d="M457.38 604.95c2.75 0 2.75 0 2.75 2.65v.5c0 2.65 0 2.65-2.75 2.65-2.88 0-2.88 0-2.88-2.65v-.5c0-2.65 0-2.65 2.88-2.65zM470 601.66h11.63v4.86H470v-4.86z" fill="#fff"/><path d="M475.63 604.95c2.75 0 2.75 0 2.75 2.65v.5c0 2.65 0 2.65-2.75 2.65s-2.75 0-2.75-2.65v-.5c0-2.65 0-2.65 2.75-2.65zM493.13 597.92h33.5v30.74h-33.5v-30.74z" fill="#fff"/><path d="M494.25 598.96h31.13v28.53h-31.13v-28.54z" fill="#54bbe7"/><path d="M415.25 616.83h11.63v4.8h-11.63v-4.8z" fill="#fff"/><path d="M420.88 620.07c2.75 0 2.75 0 2.75 2.65v.5c0 2.65 0 2.65-2.75 2.65s-2.75 0-2.75-2.65v-.5c0-2.65 0-2.65 2.75-2.65zM433.13 616.83h11.62v4.8h-11.63v-4.8z" fill="#fff"/><path d="M438.75 620.07c2.75 0 2.75 0 2.75 2.65v.5c0 2.65 0 2.65-2.75 2.65s-2.75 0-2.75-2.65v-.5c0-2.65 0-2.65 2.75-2.65zM452 616.83h11.63v4.8H452v-4.8z" fill="#fff"/><path d="M457.63 620.07c2.75 0 2.75 0 2.75 2.65v.5c0 2.65 0 2.65-2.75 2.65s-2.75 0-2.75-2.65v-.5c0-2.65 0-2.65 2.75-2.65zM470.38 616.83H482v4.8h-11.63v-4.8z" fill="#fff"/><path d="M476 620.07c2.75 0 2.75 0 2.75 2.65v.5c0 2.65 0 2.65-2.75 2.65s-2.75 0-2.75-2.65v-.5c0-2.65 0-2.65 2.75-2.65zM497.75 600.26l-3.13 3.07 3.25 3-.12-6.07zM497.75 620.25l-3.13 3.05 3.13 3.02v-6.08zM521.63 626.37l3.12-3.02-3.13-3.06v6.07zM521.75 606.48l3.13-3.02-3.13-3.06v6.08z" fill="#fff"/><path d="M497.5 602.07h4.75v2.42h-4.75v-2.43zM517.5 602.3h4.63v2.42h-4.63v-2.43zM497.5 622.04h4.63v2.44h-4.63v-2.44zM517.38 622.23H522v2.42h-4.63v-2.42z" fill="#fff"/><path d="M500 603.68l2.13-1.6 17.37 20.95-2.13 1.63L500 603.67z" fill="#fff"/><path d="M517.5 602.3l2 1.75-17.38 20.47-2.12-1.75 17.5-20.48z" fill="#fff"/><path d="M510.13 610.9l2 2.46-.38.27-2-2.48.38-.26zM507.88 613.23l2 2.47-.38.27-2-2.48.38-.27z" fill="#54bbe7"/><path d="M366 601c0-3.3 2.7-6 6-6h28c3.3 0 6 2.7 6 6v28c0 3.3-2.7 6-6 6h-28c-3.3 0-6-2.7-6-6z" stroke="#000" stroke-opacity="0" stroke-width="3" fill="#fff" fill-opacity="0"/><use xlink:href="#l" transform="matrix(1,0,0,1,371,600) translate(3.2716049382716044 19.65277777777778)"/><path d="M419.46 830.83h70.07v120.12h-70.07V830.83z" fill="#29aae1"/><path d="M446.2 914.23h35.63c1.12 0 1.12 0 1.12 1.2 0 1.08 0 1.08-1.12 1.08H446.2c-1.2 0-1.2 0-1.2-1.07 0-1.2 0-1.2 1.2-1.2zM446.27 920.35h35.5c1.53 0 1.53 0 1.53 1.56v.37c0 1.56 0 1.56-1.54 1.56h-35.5c-1.6 0-1.6 0-1.6-1.56v-.36c0-1.55 0-1.55 1.6-1.55zM446.4 927.9h35.57c1.54 0 1.54 0 1.54 1.57v.36c0 1.56 0 1.56-1.53 1.56H446.4c-1.53 0-1.53 0-1.53-1.57v-.36c0-1.56 0-1.56 1.54-1.56zM478.82 889.15c0 3.12-2.52 5.64-5.74 5.64s-5.8-2.53-5.8-5.65c0-3.12 2.58-5.64 5.8-5.64 3.22 0 5.74 2.53 5.74 5.65z" fill="#fff"/><path d="M476.5 889.15c0 1.92-1.53 3.48-3.5 3.48-1.95 0-3.56-1.56-3.56-3.48s1.6-3.48 3.57-3.48c1.97 0 3.5 1.56 3.5 3.48z" fill="#54bbe7"/><use xlink:href="#m" transform="matrix(1,0,0,1,389.46470539980726,950.8333333333723) translate(44.660493827160494 19.444444444444443)"/><path d="M459.46 785.17c0-3.32 2.7-6 6-6h128c3.32 0 6 2.68 6 6v51.33c0 3.3-2.68 6-6 6h-128c-3.3 0-6-2.7-6-6z" stroke="#000" stroke-opacity="0" stroke-width="3" fill="#fff" fill-opacity="0"/><use xlink:href="#c" transform="matrix(1,0,0,1,464.46470539980726,784.1666666665892) translate(0 31.27777777777778)"/><path d="M697.5 595h124.88v37.7H697.5V595z" fill="#29aae1"/><path d="M703.5 637.03h112.88v2.93H703.5v-2.93z" fill="#2188b4"/><path d="M706.5 601.66H718v4.86h-11.5v-4.86z" fill="#fff"/><path d="M712 604.95c2.88 0 2.88 0 2.88 2.65v.5c0 2.65 0 2.65-2.88 2.65-2.75 0-2.75 0-2.75-2.65v-.5c0-2.65 0-2.65 2.75-2.65zM724.38 601.66h11.5v4.86h-11.5v-4.86z" fill="#fff"/><path d="M730 604.95c2.75 0 2.75 0 2.75 2.65v.5c0 2.65 0 2.65-2.75 2.65-2.88 0-2.88 0-2.88-2.65v-.5c0-2.65 0-2.65 2.88-2.65zM743.25 601.66h11.5v4.86h-11.5v-4.86z" fill="#fff"/><path d="M748.88 604.95c2.75 0 2.75 0 2.75 2.65v.5c0 2.65 0 2.65-2.75 2.65-2.88 0-2.88 0-2.88-2.65v-.5c0-2.65 0-2.65 2.88-2.65zM761.5 601.66h11.63v4.86H761.5v-4.86z" fill="#fff"/><path d="M767.13 604.95c2.75 0 2.75 0 2.75 2.65v.5c0 2.65 0 2.65-2.75 2.65s-2.75 0-2.75-2.65v-.5c0-2.65 0-2.65 2.75-2.65zM784.63 597.92h33.5v30.74h-33.5v-30.74z" fill="#fff"/><path d="M785.75 598.96h31.13v28.53h-31.13v-28.54z" fill="#54bbe7"/><path d="M706.75 616.83h11.63v4.8h-11.63v-4.8z" fill="#fff"/><path d="M712.38 620.07c2.75 0 2.75 0 2.75 2.65v.5c0 2.65 0 2.65-2.75 2.65s-2.75 0-2.75-2.65v-.5c0-2.65 0-2.65 2.75-2.65zM724.63 616.83h11.62v4.8h-11.63v-4.8z" fill="#fff"/><path d="M730.25 620.07c2.75 0 2.75 0 2.75 2.65v.5c0 2.65 0 2.65-2.75 2.65s-2.75 0-2.75-2.65v-.5c0-2.65 0-2.65 2.75-2.65zM743.5 616.83h11.63v4.8H743.5v-4.8z" fill="#fff"/><path d="M749.13 620.07c2.75 0 2.75 0 2.75 2.65v.5c0 2.65 0 2.65-2.75 2.65s-2.75 0-2.75-2.65v-.5c0-2.65 0-2.65 2.75-2.65zM761.88 616.83h11.62v4.8h-11.63v-4.8z" fill="#fff"/><path d="M767.5 620.07c2.75 0 2.75 0 2.75 2.65v.5c0 2.65 0 2.65-2.75 2.65s-2.75 0-2.75-2.65v-.5c0-2.65 0-2.65 2.75-2.65zM789.25 600.26l-3.13 3.07 3.25 3-.12-6.07zM789.25 620.25l-3.13 3.05 3.13 3.02v-6.08zM813.13 626.37l3.12-3.02-3.13-3.06v6.07zM813.25 606.48l3.13-3.02-3.13-3.06v6.08z" fill="#fff"/><path d="M789 602.07h4.75v2.42H789v-2.43zM809 602.3h4.63v2.42H809v-2.43zM789 622.04h4.63v2.44H789v-2.44zM808.88 622.23h4.62v2.42h-4.63v-2.42z" fill="#fff"/><path d="M791.5 603.68l2.13-1.6L811 623.02l-2.13 1.63-17.37-20.98z" fill="#fff"/><path d="M809 602.3l2 1.75-17.38 20.47-2.12-1.75L809 602.3z" fill="#fff"/><path d="M801.63 610.9l2 2.46-.38.27-2-2.48.38-.26zM799.38 613.23l2 2.47-.38.27-2-2.48.38-.27z" fill="#54bbe7"/><path d="M657.5 601c0-3.3 2.7-6 6-6h28c3.3 0 6 2.7 6 6v28c0 3.3-2.7 6-6 6h-28c-3.3 0-6-2.7-6-6z" stroke="#000" stroke-opacity="0" stroke-width="3" fill="#fff" fill-opacity="0"/><use xlink:href="#n" transform="matrix(1,0,0,1,662.5,600) translate(3.2716049382716044 19.65277777777778)"/><path d="M160.52 640.96v188.87" stroke="#333" stroke-width="2" fill="none"/><path d="M161.52 640.98h-2v-1.02h2zm0-3.95h-2v-.07h2zM161.52 830.83h-2v-1.02h2z" fill="#333"/><path d="M478 200.88v216.3" stroke="#333" stroke-width="2" fill="none"/><path d="M479 200.9h-2v-1.02h2zM479 418.2h-2v-1.04h2z" fill="#333"/><path d="M472 474.63v53.7c0 3.3-2.7 6-6 6h-23.54c-3.32 0-6 2.67-6 6V594" stroke="#333" stroke-width="2" fill="none"/><path d="M473 474.66h-2v-1.03h2zM437.46 595h-2v-1.03h2z" fill="#333"/><path d="M745.7 925.12h18v13.94h-18v-13.94zM658.7 800h190.4v125.12H658.7V800z" fill="#29aae1"/><path d="M667.3 807.65h173.8V919.5H667.3V807.66z" fill="#fff" fill-opacity=".98"/><path d="M666.1 939.9h173.6l-8.6 29.93H657.5l8.6-29.92z" fill="#29aae1"/><path d="M665.1 938.9h177.6l14.8 30.93H679.9l-14.8-30.94z" fill="#29aae1"/><path d="M725.3 961.84h63.2v6.3h-63.2v-6.3zM690.5 943.82h4.6v3.9h-4.6v-3.9zM698.7 944h4.8v3.9h-4.8V944zM709.3 951.13h4.8v3.9h-4.8v-3.9zM707.7 943.48h4.6v4.08h-4.6v-4.08zM715.7 943.82h4.8v3.9h-4.8v-3.9zM723.5 943.48h4.8v4.08h-4.8v-4.08zM772.5 944.16h4.8v4.08h-4.8v-4.08zM779.7 944.16h4.8v4.08h-4.8v-4.08zM786.5 944.16h4.8v4.08h-4.8v-4.08zM794.7 944.16h4.6v4.08h-4.6v-4.08zM802.1 944.16h4.6v4.08h-4.6v-4.08zM793.3 950.8h4.6v3.9h-4.6v-3.9zM810.5 944.16h4.8v4.08h-4.8v-4.08zM718.3 950.96h4.6v3.9h-4.6v-3.9zM727.3 950.96h4.6v3.9h-4.6v-3.9zM785.9 950.62h4v3.9h-4v-3.9zM777.7 950.62h4.8v3.9h-4.8v-3.9zM732.3 943.65h4.8v4.08h-4.8v-4.08zM741.3 943.82h4.6v4.08h-4.6v-4.08zM749.5 943.65h4.6v4.08h-4.6v-4.08zM758.5 943.65h4.6v4.08h-4.6v-4.08zM765.9 943.82h4.6v4.08h-4.6v-4.08zM735.3 950.8h4.8v3.9h-4.8v-3.9zM744.3 950.8h4.6v3.9h-4.6v-3.9zM752.5 950.96h4.8v3.9h-4.8v-3.9zM760.7 950.96h4.6v3.9h-4.6v-3.9zM769.1 950.62h4.6v3.9h-4.6v-3.9z" fill="#fff"/><path d="M657.7 969.83l199.8-.68-14.2-30.26-177 .33-8.6 30.6z" fill="none"/><path d="M744.7 925.12h19.6V927h-19.6v-1.88zM745.5 936.68h18.6v2.2h-18.6v-2.2z" fill="#fff"/><use xlink:href="#o" transform="matrix(1,0,0,1,627.5,969.9999999999807) translate(100.37037037037038 19.444444444444443)"/><path d="M777 766c0-3.3 2.7-6 6-6h128c3.3 0 6 2.7 6 6v28c0 3.3-2.7 6-6 6H783c-3.3 0-6-2.7-6-6z" stroke="#000" stroke-opacity="0" stroke-width="3" fill="#fff" fill-opacity="0"/><use xlink:href="#c" transform="matrix(1,0,0,1,782,764.9999999999807) translate(0 19.65277777777778)"/><path d="M553.85 169.94H743c3.3 0 6 2.7 6 6V417.2" stroke="#333" stroke-width="2" fill="none"/><path d="M553.88 170.94h-1.03v-2h1.03zM750 418.2h-2v-1.04h2z" fill="#333"/><path d="M195 474.63v53.7c0 3.3-2.7 6-6 6h-22.54c-3.32 0-6 2.67-6 6V594" stroke="#333" stroke-width="2" fill="none"/><path d="M196 474.66h-2v-1.03h2zM161.46 595h-2v-1.03h2z" fill="#333"/><path d="M728.02 640.96v73.02c0 3.3 2.7 6 6 6h17.48c3.3 0 6 2.68 6 6V799" stroke="#333" stroke-width="2" fill="none"/><path d="M729.02 640.98h-2v-1.02h2zm0-3.95h-2v-.07h2zM758.5 800h-2v-1.03h2z" fill="#333"/><path d="M402 170H201c-3.3 0-6 2.7-6 6v241.2" stroke="#333" stroke-width="2" fill="none"/><path d="M403 171h-1.03v-2H403zM196 418.2h-2v-1.04h2z" fill="#333"/><path d="M749 474.63v53.7c0 3.3-2.7 6-6 6h-9.04c-3.32 0-6 2.67-6 6V594" stroke="#333" stroke-width="2" fill="none"/><path d="M750 474.66h-2v-1.03h2zM728.96 595h-2v-1.03h2z" fill="#333"/><path d="M240 146c0-3.3 2.7-6 6-6h128c3.3 0 6 2.7 6 6v28c0 3.3-2.7 6-6 6H246c-3.3 0-6-2.7-6-6z" stroke="#000" stroke-opacity="0" stroke-width="3" fill="#fff" fill-opacity="0"/><use xlink:href="#p" transform="matrix(1,0,0,1,245,145) translate(0 19.65277777777778)"/><path d="M557.5 146c0-3.3 2.7-6 6-6h128c3.3 0 6 2.7 6 6v28c0 3.3-2.7 6-6 6h-128c-3.3 0-6-2.7-6-6z" stroke="#000" stroke-opacity="0" stroke-width="3" fill="#fff" fill-opacity="0"/><use xlink:href="#q" transform="matrix(1,0,0,1,562.5,145) translate(0 19.65277777777778)"/><path d="M480 219.75c0-3.3 2.7-6 6-6h128c3.3 0 6 2.7 6 6v28c0 3.3-2.7 6-6 6H486c-3.3 0-6-2.7-6-6z" stroke="#000" stroke-opacity="0" stroke-width="3" fill="#fff" fill-opacity="0"/><use xlink:href="#r" transform="matrix(1,0,0,1,485,218.75) translate(0 19.65277777777778)"/><defs><path fill="#333" d="M114-163C36-179 61-72 57 0H25l-1-190h30c1 12-1 29 2 39 6-27 23-49 58-41v29" id="s"/><path fill="#333" d="M101-251c68 0 85 55 85 127S166 4 100 4C33 4 14-52 14-124c0-73 17-127 87-127zm-1 229c47 0 54-49 54-102s-4-102-53-102c-51 0-55 48-55 102 0 53 5 102 54 102" id="t"/><g id="a"><use transform="matrix(0.06172839506172839,0,0,0.06172839506172839,0,0)" xlink:href="#s"/><use transform="matrix(0.06172839506172839,0,0,0.06172839506172839,7.345679012345679,0)" xlink:href="#t"/></g><path fill="#333" d="M115-194c55 1 70 41 70 98S169 2 115 4C84 4 66-9 55-30l1 105H24l-1-265h31l2 30c10-21 28-34 59-34zm-8 174c40 0 45-34 45-75s-6-73-45-74c-42 0-51 32-51 76 0 43 10 73 51 73" id="u"/><path fill="#333" d="M24 0v-261h32V0H24" id="v"/><path fill="#333" d="M96-169c-40 0-48 33-48 73s9 75 48 75c24 0 41-14 43-38l32 2c-6 37-31 61-74 61-59 0-76-41-82-99-10-93 101-131 147-64 4 7 5 14 7 22l-32 3c-4-21-16-35-41-35" id="w"/><path fill="#333" d="M27 0v-27h64v-190l-56 39v-29l58-41h29v221h61V0H27" id="x"/><g id="b"><use transform="matrix(0.06172839506172839,0,0,0.06172839506172839,0,0)" xlink:href="#u"/><use transform="matrix(0.06172839506172839,0,0,0.06172839506172839,12.345679012345679,0)" xlink:href="#v"/><use transform="matrix(0.06172839506172839,0,0,0.06172839506172839,17.22222222222222,0)" xlink:href="#w"/><use transform="matrix(0.06172839506172839,0,0,0.06172839506172839,28.333333333333332,0)" xlink:href="#x"/></g><path fill="#333" d="M99-251c64 0 84 50 84 122C183-37 130 33 47-8c-14-7-20-23-25-40l30-5c6 39 69 39 84 7 9-19 16-44 16-74-10 22-31 35-62 35-49 0-73-33-73-83 0-54 28-83 82-83zm-1 141c31-1 51-18 51-49 0-36-14-67-51-67-34 0-49 23-49 58 0 34 15 58 49 58" id="y"/><path fill="#333" d="M101-251c82-7 93 87 43 132L82-64C71-53 59-42 53-27h129V0H18c2-99 128-94 128-182 0-28-16-43-45-43s-46 15-49 41l-32-3c6-41 34-60 81-64" id="z"/><path fill="#333" d="M33 0v-38h34V0H33" id="A"/><path fill="#333" d="M110-160c48 1 74 30 74 79 0 53-28 85-80 85-65 0-83-55-86-122-5-90 50-162 133-122 14 7 22 21 27 39l-31 6c-5-40-67-38-82-6-9 19-15 44-15 74 11-20 30-34 60-33zm-7 138c34 0 49-23 49-58s-16-56-50-56c-29 0-50 16-49 49 1 36 15 65 50 65" id="B"/><path fill="#333" d="M134-131c28 9 52 24 51 62-1 50-34 73-85 73S17-19 16-69c0-36 21-54 49-61-75-25-45-126 34-121 46 3 78 18 79 63 0 33-17 51-44 57zm-34-11c31 1 46-15 46-44 0-28-17-43-47-42-29 0-46 13-45 42 1 28 16 44 46 44zm1 122c35 0 51-18 51-52 0-30-18-46-53-46-33 0-51 17-51 47 0 34 19 51 53 51" id="C"/><g id="c"><use transform="matrix(0.06172839506172839,0,0,0.06172839506172839,0,0)" xlink:href="#x"/><use transform="matrix(0.06172839506172839,0,0,0.06172839506172839,12.345679012345679,0)" xlink:href="#y"/><use transform="matrix(0.06172839506172839,0,0,0.06172839506172839,24.691358024691358,0)" xlink:href="#z"/><use transform="matrix(0.06172839506172839,0,0,0.06172839506172839,37.03703703703704,0)" xlink:href="#A"/><use transform="matrix(0.06172839506172839,0,0,0.06172839506172839,43.20987654320988,0)" xlink:href="#x"/><use transform="matrix(0.06172839506172839,0,0,0.06172839506172839,55.55555555555556,0)" xlink:href="#B"/><use transform="matrix(0.06172839506172839,0,0,0.06172839506172839,67.90123456790124,0)" xlink:href="#C"/><use transform="matrix(0.06172839506172839,0,0,0.06172839506172839,80.24691358024693,0)" xlink:href="#A"/><use transform="matrix(0.06172839506172839,0,0,0.06172839506172839,86.41975308641976,0)" xlink:href="#x"/><use transform="matrix(0.06172839506172839,0,0,0.06172839506172839,98.76543209876544,0)" xlink:href="#A"/><use transform="matrix(0.06172839506172839,0,0,0.06172839506172839,104.93827160493828,0)" xlink:href="#x"/></g><g id="d"><use transform="matrix(0.06172839506172839,0,0,0.06172839506172839,0,0)" xlink:href="#s"/><use transform="matrix(0.06172839506172839,0,0,0.06172839506172839,7.345679012345679,0)" xlink:href="#x"/></g><path fill="#333" d="M54-142c48-35 137-8 131 61C196 18 31 33 14-55l32-4c7 23 22 37 52 37 35-1 51-22 54-58 4-55-73-65-99-34H22l8-134h141v27H59" id="D"/><path fill="#333" d="M155-56V0h-30v-56H8v-25l114-167h33v167h35v25h-35zm-30-156c-27 46-58 90-88 131h88v-131" id="E"/><g id="e"><use transform="matrix(0.06172839506172839,0,0,0.06172839506172839,0,0)" xlink:href="#x"/><use transform="matrix(0.06172839506172839,0,0,0.06172839506172839,12.345679012345679,0)" xlink:href="#y"/><use transform="matrix(0.06172839506172839,0,0,0.06172839506172839,24.691358024691358,0)" xlink:href="#z"/><use transform="matrix(0.06172839506172839,0,0,0.06172839506172839,37.03703703703704,0)" xlink:href="#A"/><use transform="matrix(0.06172839506172839,0,0,0.06172839506172839,43.20987654320988,0)" xlink:href="#x"/><use transform="matrix(0.06172839506172839,0,0,0.06172839506172839,55.55555555555556,0)" xlink:href="#B"/><use transform="matrix(0.06172839506172839,0,0,0.06172839506172839,67.90123456790124,0)" xlink:href="#C"/><use transform="matrix(0.06172839506172839,0,0,0.06172839506172839,80.24691358024693,0)" xlink:href="#A"/><use transform="matrix(0.06172839506172839,0,0,0.06172839506172839,86.41975308641976,0)" xlink:href="#x"/><use transform="matrix(0.06172839506172839,0,0,0.06172839506172839,98.76543209876544,0)" xlink:href="#A"/><use transform="matrix(0.06172839506172839,0,0,0.06172839506172839,104.93827160493828,0)" xlink:href="#z"/><use transform="matrix(0.06172839506172839,0,0,0.06172839506172839,117.28395061728396,0)" xlink:href="#D"/><use transform="matrix(0.06172839506172839,0,0,0.06172839506172839,129.62962962962965,0)" xlink:href="#E"/></g><g id="f"><use transform="matrix(0.06172839506172839,0,0,0.06172839506172839,0,0)" xlink:href="#x"/><use transform="matrix(0.06172839506172839,0,0,0.06172839506172839,12.345679012345679,0)" xlink:href="#t"/><use transform="matrix(0.06172839506172839,0,0,0.06172839506172839,24.691358024691358,0)" xlink:href="#A"/><use transform="matrix(0.06172839506172839,0,0,0.06172839506172839,30.864197530864196,0)" xlink:href="#t"/><use transform="matrix(0.06172839506172839,0,0,0.06172839506172839,43.20987654320987,0)" xlink:href="#A"/><use transform="matrix(0.06172839506172839,0,0,0.06172839506172839,49.382716049382715,0)" xlink:href="#x"/><use transform="matrix(0.06172839506172839,0,0,0.06172839506172839,61.72839506172839,0)" xlink:href="#A"/><use transform="matrix(0.06172839506172839,0,0,0.06172839506172839,67.90123456790123,0)" xlink:href="#x"/></g><path fill="#333" d="M135-143c-3-34-86-38-87 0 15 53 115 12 119 90S17 21 10-45l28-5c4 36 97 45 98 0-10-56-113-15-118-90-4-57 82-63 122-42 12 7 21 19 24 35" id="F"/><g id="g"><use transform="matrix(0.06172839506172839,0,0,0.06172839506172839,0,0)" xlink:href="#F"/><use transform="matrix(0.06172839506172839,0,0,0.06172839506172839,11.11111111111111,0)" xlink:href="#x"/></g><g id="h"><use transform="matrix(0.06172839506172839,0,0,0.06172839506172839,0,0)" xlink:href="#s"/><use transform="matrix(0.06172839506172839,0,0,0.06172839506172839,7.345679012345679,0)" xlink:href="#z"/></g><g id="i"><use transform="matrix(0.06172839506172839,0,0,0.06172839506172839,0,0)" xlink:href="#x"/><use transform="matrix(0.06172839506172839,0,0,0.06172839506172839,12.345679012345679,0)" xlink:href="#t"/><use transform="matrix(0.06172839506172839,0,0,0.06172839506172839,24.691358024691358,0)" xlink:href="#A"/><use transform="matrix(0.06172839506172839,0,0,0.06172839506172839,30.864197530864196,0)" xlink:href="#t"/><use transform="matrix(0.06172839506172839,0,0,0.06172839506172839,43.20987654320987,0)" xlink:href="#A"/><use transform="matrix(0.06172839506172839,0,0,0.06172839506172839,49.382716049382715,0)" xlink:href="#z"/><use transform="matrix(0.06172839506172839,0,0,0.06172839506172839,61.72839506172839,0)" xlink:href="#A"/><use transform="matrix(0.06172839506172839,0,0,0.06172839506172839,67.90123456790123,0)" xlink:href="#x"/></g><path fill="#333" d="M126-127c33 6 58 20 58 59 0 88-139 92-164 29-3-8-5-16-6-25l32-3c6 27 21 44 54 44 32 0 52-15 52-46 0-38-36-46-79-43v-28c39 1 72-4 72-42 0-27-17-43-46-43-28 0-47 15-49 41l-32-3c6-42 35-63 81-64 48-1 79 21 79 65 0 36-21 52-52 59" id="G"/><g id="j"><use transform="matrix(0.06172839506172839,0,0,0.06172839506172839,0,0)" xlink:href="#s"/><use transform="matrix(0.06172839506172839,0,0,0.06172839506172839,7.345679012345679,0)" xlink:href="#G"/></g><g id="k"><use transform="matrix(0.06172839506172839,0,0,0.06172839506172839,0,0)" xlink:href="#x"/><use transform="matrix(0.06172839506172839,0,0,0.06172839506172839,12.345679012345679,0)" xlink:href="#t"/><use transform="matrix(0.06172839506172839,0,0,0.06172839506172839,24.691358024691358,0)" xlink:href="#A"/><use transform="matrix(0.06172839506172839,0,0,0.06172839506172839,30.864197530864196,0)" xlink:href="#t"/><use transform="matrix(0.06172839506172839,0,0,0.06172839506172839,43.20987654320987,0)" xlink:href="#A"/><use transform="matrix(0.06172839506172839,0,0,0.06172839506172839,49.382716049382715,0)" xlink:href="#G"/><use transform="matrix(0.06172839506172839,0,0,0.06172839506172839,61.72839506172839,0)" xlink:href="#A"/><use transform="matrix(0.06172839506172839,0,0,0.06172839506172839,67.90123456790123,0)" xlink:href="#x"/></g><g id="l"><use transform="matrix(0.06172839506172839,0,0,0.06172839506172839,0,0)" xlink:href="#F"/><use transform="matrix(0.06172839506172839,0,0,0.06172839506172839,11.11111111111111,0)" xlink:href="#z"/></g><g id="m"><use transform="matrix(0.06172839506172839,0,0,0.06172839506172839,0,0)" xlink:href="#u"/><use transform="matrix(0.06172839506172839,0,0,0.06172839506172839,12.345679012345679,0)" xlink:href="#v"/><use transform="matrix(0.06172839506172839,0,0,0.06172839506172839,17.22222222222222,0)" xlink:href="#w"/><use transform="matrix(0.06172839506172839,0,0,0.06172839506172839,28.333333333333332,0)" xlink:href="#z"/></g><g id="n"><use transform="matrix(0.06172839506172839,0,0,0.06172839506172839,0,0)" xlink:href="#F"/><use transform="matrix(0.06172839506172839,0,0,0.06172839506172839,11.11111111111111,0)" xlink:href="#G"/></g><path fill="#333" d="M141-36C126-15 110 5 73 4 37 3 15-17 15-53c-1-64 63-63 125-63 3-35-9-54-41-54-24 1-41 7-42 31l-33-3c5-37 33-52 76-52 45 0 72 20 72 64v82c-1 20 7 32 28 27v20c-31 9-61-2-59-35zM48-53c0 20 12 33 32 33 41-3 63-29 60-74-43 2-92-5-92 41" id="H"/><path fill="#333" d="M85-194c31 0 48 13 60 33l-1-100h32l1 261h-30c-2-10 0-23-3-31C134-8 116 4 85 4 32 4 16-35 15-94c0-66 23-100 70-100zm9 24c-40 0-46 34-46 75 0 40 6 74 45 74 42 0 51-32 51-76 0-42-9-74-50-73" id="I"/><g id="o"><use transform="matrix(0.06172839506172839,0,0,0.06172839506172839,0,0)" xlink:href="#F"/><use transform="matrix(0.06172839506172839,0,0,0.06172839506172839,11.11111111111111,0)" xlink:href="#w"/><use transform="matrix(0.06172839506172839,0,0,0.06172839506172839,22.22222222222222,0)" xlink:href="#H"/><use transform="matrix(0.06172839506172839,0,0,0.06172839506172839,34.5679012345679,0)" xlink:href="#I"/><use transform="matrix(0.06172839506172839,0,0,0.06172839506172839,46.913580246913575,0)" xlink:href="#H"/></g><g id="p"><use transform="matrix(0.06172839506172839,0,0,0.06172839506172839,0,0)" xlink:href="#x"/><use transform="matrix(0.06172839506172839,0,0,0.06172839506172839,12.345679012345679,0)" xlink:href="#t"/><use transform="matrix(0.06172839506172839,0,0,0.06172839506172839,24.691358024691358,0)" xlink:href="#A"/><use transform="matrix(0.06172839506172839,0,0,0.06172839506172839,30.864197530864196,0)" xlink:href="#t"/><use transform="matrix(0.06172839506172839,0,0,0.06172839506172839,43.20987654320987,0)" xlink:href="#A"/><use transform="matrix(0.06172839506172839,0,0,0.06172839506172839,49.382716049382715,0)" xlink:href="#x"/><use transform="matrix(0.06172839506172839,0,0,0.06172839506172839,61.72839506172839,0)" xlink:href="#A"/><use transform="matrix(0.06172839506172839,0,0,0.06172839506172839,67.90123456790123,0)" xlink:href="#z"/><use transform="matrix(0.06172839506172839,0,0,0.06172839506172839,80.24691358024691,0)" xlink:href="#D"/><use transform="matrix(0.06172839506172839,0,0,0.06172839506172839,92.5925925925926,0)" xlink:href="#E"/></g><g id="q"><use transform="matrix(0.06172839506172839,0,0,0.06172839506172839,0,0)" xlink:href="#x"/><use transform="matrix(0.06172839506172839,0,0,0.06172839506172839,12.345679012345679,0)" xlink:href="#t"/><use transform="matrix(0.06172839506172839,0,0,0.06172839506172839,24.691358024691358,0)" xlink:href="#A"/><use transform="matrix(0.06172839506172839,0,0,0.06172839506172839,30.864197530864196,0)" xlink:href="#t"/><use transform="matrix(0.06172839506172839,0,0,0.06172839506172839,43.20987654320987,0)" xlink:href="#A"/><use transform="matrix(0.06172839506172839,0,0,0.06172839506172839,49.382716049382715,0)" xlink:href="#G"/><use transform="matrix(0.06172839506172839,0,0,0.06172839506172839,61.72839506172839,0)" xlink:href="#A"/><use transform="matrix(0.06172839506172839,0,0,0.06172839506172839,67.90123456790123,0)" xlink:href="#z"/><use transform="matrix(0.06172839506172839,0,0,0.06172839506172839,80.24691358024691,0)" xlink:href="#D"/><use transform="matrix(0.06172839506172839,0,0,0.06172839506172839,92.5925925925926,0)" xlink:href="#E"/></g><g id="r"><use transform="matrix(0.06172839506172839,0,0,0.06172839506172839,0,0)" xlink:href="#x"/><use transform="matrix(0.06172839506172839,0,0,0.06172839506172839,12.345679012345679,0)" xlink:href="#t"/><use transform="matrix(0.06172839506172839,0,0,0.06172839506172839,24.691358024691358,0)" xlink:href="#A"/><use transform="matrix(0.06172839506172839,0,0,0.06172839506172839,30.864197530864196,0)" xlink:href="#t"/><use transform="matrix(0.06172839506172839,0,0,0.06172839506172839,43.20987654320987,0)" xlink:href="#A"/><use transform="matrix(0.06172839506172839,0,0,0.06172839506172839,49.382716049382715,0)" xlink:href="#z"/><use transform="matrix(0.06172839506172839,0,0,0.06172839506172839,61.72839506172839,0)" xlink:href="#A"/><use transform="matrix(0.06172839506172839,0,0,0.06172839506172839,67.90123456790123,0)" xlink:href="#z"/><use transform="matrix(0.06172839506172839,0,0,0.06172839506172839,80.24691358024691,0)" xlink:href="#D"/><use transform="matrix(0.06172839506172839,0,0,0.06172839506172839,92.5925925925926,0)" xlink:href="#E"/></g></defs></g></svg>