<svg xmlns="http://www.w3.org/2000/svg" xmlns:xlink="http://www.w3.org/1999/xlink" xmlns:lucid="lucid" width="847" height="740.67"><g transform="translate(-20 -23)" lucid:page-tab-id="wXiE0BJ0HgS5"><path d="M393.95 163.88v73.06c0 3.3 2.7 6 6 6h161.5c3.32 0 6 2.7 6 6V322" stroke="#333" stroke-width="2" fill="none"/><path d="M394.95 163.9h-2v-1.02h2zM568.46 323h-2v-1.03h2z" fill="#333"/><path d="M344.05 163.88V237c0 3.3-2.7 6-6 6H148.5c-3.3 0-6 2.7-6 6v73" stroke="#333" stroke-width="2" fill="none"/><path d="M345.05 163.9h-2v-1.02h2zM143.5 323h-2v-1.03h2z" fill="#333"/><path d="M578.7 368.95V457c0 3.3-2.68 6-6 6H490c-3.3 0-6 2.7-6 6v82" stroke="#333" stroke-width="2" fill="none"/><path d="M579.7 368.98h-2v-1.03h2zm0-3.95h-2v-.07h2zM485 552h-2v-1.03h2z" fill="#333"/><path d="M620.3 368.95V457c0 3.3 2.68 6 6 6H696c3.3 0 6 2.7 6 6v82" stroke="#333" stroke-width="2" fill="none"/><path d="M621.3 368.98h-2v-1.03h2zm0-3.95h-2v-.07h2zM703 552h-2v-1.03h2z" fill="#333"/><path d="M142.5 368.95V551" stroke="#333" stroke-width="2" fill="none"/><path d="M143.5 368.98h-2v-1.03h2zm0-3.95h-2v-.07h2zM143.5 552h-2v-1.03h2z" fill="#333"/><path d="M80 323h124.88v37.7H80V323z" fill="#29aae1"/><path d="M86 365.03h112.88v2.93H86v-2.93z" fill="#2188b4"/><path d="M89 329.66h11.5v4.86H89v-4.86z" fill="#fff"/><path d="M94.5 332.94c2.88 0 2.88 0 2.88 2.66v.5c0 2.65 0 2.65-2.88 2.65-2.75 0-2.75 0-2.75-2.65v-.5c0-2.66 0-2.66 2.75-2.66zM106.88 329.66h11.5v4.86h-11.5v-4.86z" fill="#fff"/><path d="M112.5 332.94c2.75 0 2.75 0 2.75 2.66v.5c0 2.65 0 2.65-2.75 2.65-2.88 0-2.88 0-2.88-2.65v-.5c0-2.66 0-2.66 2.88-2.66zM125.75 329.66h11.5v4.86h-11.5v-4.86z" fill="#fff"/><path d="M131.38 332.94c2.75 0 2.75 0 2.75 2.66v.5c0 2.65 0 2.65-2.75 2.65-2.88 0-2.88 0-2.88-2.65v-.5c0-2.66 0-2.66 2.88-2.66zM144 329.66h11.63v4.86H144v-4.86z" fill="#fff"/><path d="M149.63 332.94c2.75 0 2.75 0 2.75 2.66v.5c0 2.65 0 2.65-2.75 2.65s-2.75 0-2.75-2.65v-.5c0-2.66 0-2.66 2.75-2.66zM167.13 325.93h33.5v30.73h-33.5v-30.74z" fill="#fff"/><path d="M168.25 326.96h31.13v28.53h-31.13v-28.54z" fill="#54bbe7"/><path d="M89.25 344.82h11.63v4.82H89.25v-4.8z" fill="#fff"/><path d="M94.88 348.06c2.75 0 2.75 0 2.75 2.66v.5c0 2.65 0 2.65-2.75 2.65s-2.75 0-2.75-2.66v-.48c0-2.66 0-2.66 2.75-2.66zM107.13 344.82h11.62v4.82h-11.63v-4.8z" fill="#fff"/><path d="M112.75 348.06c2.75 0 2.75 0 2.75 2.66v.5c0 2.65 0 2.65-2.75 2.65s-2.75 0-2.75-2.66v-.48c0-2.66 0-2.66 2.75-2.66zM126 344.82h11.63v4.82H126v-4.8z" fill="#fff"/><path d="M131.63 348.06c2.75 0 2.75 0 2.75 2.66v.5c0 2.65 0 2.65-2.75 2.65s-2.75 0-2.75-2.66v-.48c0-2.66 0-2.66 2.75-2.66zM144.38 344.82H156v4.82h-11.63v-4.8z" fill="#fff"/><path d="M150 348.06c2.75 0 2.75 0 2.75 2.66v.5c0 2.65 0 2.65-2.75 2.65s-2.75 0-2.75-2.66v-.48c0-2.66 0-2.66 2.75-2.66zM171.75 328.26l-3.13 3.06 3.25 3.02-.12-6.07zM171.75 348.25l-3.13 3.06 3.13 3.02v-6.07zM195.63 354.37l3.12-3.02-3.13-3.06v6.06zM195.75 334.48l3.13-3.02-3.13-3.06v6.08z" fill="#fff"/><path d="M171.5 330.06h4.75v2.44h-4.75v-2.44zM191.5 330.3h4.63v2.42h-4.63v-2.43zM171.5 350.05h4.63v2.43h-4.63v-2.44zM191.38 350.23H196v2.42h-4.63v-2.42z" fill="#fff"/><path d="M174 331.7l2.13-1.63 17.37 20.97-2.13 1.6L174 331.7z" fill="#fff"/><path d="M191.5 330.3l2 1.75-17.38 20.47-2.12-1.75 17.5-20.48z" fill="#fff"/><path d="M184.13 338.9l2 2.46-.38.27-2-2.48.38-.26zM181.88 341.23l2 2.47-.38.27-2-2.48.38-.27z" fill="#54bbe7"/><path d="M40 329c0-3.3 2.7-6 6-6h28c3.3 0 6 2.7 6 6v28c0 3.3-2.7 6-6 6H46c-3.3 0-6-2.7-6-6z" stroke="#000" stroke-opacity="0" stroke-width="3" fill="#fff" fill-opacity="0"/><use xlink:href="#a" transform="matrix(1,0,0,1,45,328) translate(3.2716049382716044 19.65277777777778)"/><path d="M537 323h124.88v37.7H537V323z" fill="#29aae1"/><path d="M543 365.03h112.88v2.93H543v-2.93z" fill="#2188b4"/><path d="M546 329.66h11.5v4.86H546v-4.86z" fill="#fff"/><path d="M551.5 332.94c2.88 0 2.88 0 2.88 2.66v.5c0 2.65 0 2.65-2.88 2.65-2.75 0-2.75 0-2.75-2.65v-.5c0-2.66 0-2.66 2.75-2.66zM563.88 329.66h11.5v4.86h-11.5v-4.86z" fill="#fff"/><path d="M569.5 332.94c2.75 0 2.75 0 2.75 2.66v.5c0 2.65 0 2.65-2.75 2.65-2.88 0-2.88 0-2.88-2.65v-.5c0-2.66 0-2.66 2.88-2.66zM582.75 329.66h11.5v4.86h-11.5v-4.86z" fill="#fff"/><path d="M588.38 332.94c2.75 0 2.75 0 2.75 2.66v.5c0 2.65 0 2.65-2.75 2.65-2.88 0-2.88 0-2.88-2.65v-.5c0-2.66 0-2.66 2.88-2.66zM601 329.66h11.63v4.86H601v-4.86z" fill="#fff"/><path d="M606.63 332.94c2.75 0 2.75 0 2.75 2.66v.5c0 2.65 0 2.65-2.75 2.65s-2.75 0-2.75-2.65v-.5c0-2.66 0-2.66 2.75-2.66zM624.13 325.93h33.5v30.73h-33.5v-30.74z" fill="#fff"/><path d="M625.25 326.96h31.13v28.53h-31.13v-28.54z" fill="#54bbe7"/><path d="M546.25 344.82h11.63v4.82h-11.63v-4.8z" fill="#fff"/><path d="M551.88 348.06c2.75 0 2.75 0 2.75 2.66v.5c0 2.65 0 2.65-2.75 2.65s-2.75 0-2.75-2.66v-.48c0-2.66 0-2.66 2.75-2.66zM564.13 344.82h11.62v4.82h-11.63v-4.8z" fill="#fff"/><path d="M569.75 348.06c2.75 0 2.75 0 2.75 2.66v.5c0 2.65 0 2.65-2.75 2.65s-2.75 0-2.75-2.66v-.48c0-2.66 0-2.66 2.75-2.66zM583 344.82h11.63v4.82H583v-4.8z" fill="#fff"/><path d="M588.63 348.06c2.75 0 2.75 0 2.75 2.66v.5c0 2.65 0 2.65-2.75 2.65s-2.75 0-2.75-2.66v-.48c0-2.66 0-2.66 2.75-2.66zM601.38 344.82H613v4.82h-11.63v-4.8z" fill="#fff"/><path d="M607 348.06c2.75 0 2.75 0 2.75 2.66v.5c0 2.65 0 2.65-2.75 2.65s-2.75 0-2.75-2.66v-.48c0-2.66 0-2.66 2.75-2.66zM628.75 328.26l-3.13 3.06 3.25 3.02-.12-6.07zM628.75 348.25l-3.13 3.06 3.13 3.02v-6.07zM652.63 354.37l3.12-3.02-3.13-3.06v6.06zM652.75 334.48l3.13-3.02-3.13-3.06v6.08z" fill="#fff"/><path d="M628.5 330.06h4.75v2.44h-4.75v-2.44zM648.5 330.3h4.63v2.42h-4.63v-2.43zM628.5 350.05h4.63v2.43h-4.63v-2.44zM648.38 350.23H653v2.42h-4.63v-2.42z" fill="#fff"/><path d="M631 331.7l2.13-1.63 17.37 20.97-2.13 1.6L631 331.7z" fill="#fff"/><path d="M648.5 330.3l2 1.75-17.38 20.47-2.12-1.75 17.5-20.48z" fill="#fff"/><path d="M641.13 338.9l2 2.46-.38.27-2-2.48.38-.26zM638.88 341.23l2 2.47-.38.27-2-2.48.38-.27z" fill="#54bbe7"/><path d="M497 329c0-3.3 2.7-6 6-6h28c3.3 0 6 2.7 6 6v28c0 3.3-2.7 6-6 6h-28c-3.3 0-6-2.7-6-6z" stroke="#000" stroke-opacity="0" stroke-width="3" fill="#fff" fill-opacity="0"/><use xlink:href="#b" transform="matrix(1,0,0,1,502,328) translate(3.2716049382716044 19.65277777777778)"/><path d="M294 107.44h149.85V154H294v-46.56z" fill="#29aae1"/><path d="M301.2 159.28h135.45v3.6H301.2v-3.6z" fill="#2188b4"/><path d="M301.05 125.2H315v5.88h-13.95v-5.88z" fill="#fff"/><path d="M307.8 129.16c3.3 0 3.3 0 3.3 3.36v.6c0 3.24 0 3.24-3.3 3.24s-3.3 0-3.3-3.24v-.6c0-3.36 0-3.36 3.3-3.36zM322.5 125.2h13.95v5.88H322.5v-5.88z" fill="#fff"/><path d="M329.25 129.16c3.3 0 3.3 0 3.3 3.36v.6c0 3.24 0 3.24-3.3 3.24s-3.3 0-3.3-3.24v-.6c0-3.36 0-3.36 3.3-3.36zM345.15 125.2h13.95v5.88h-13.95v-5.88z" fill="#fff"/><path d="M351.9 129.16c3.3 0 3.3 0 3.3 3.36v.6c0 3.24 0 3.24-3.3 3.24s-3.3 0-3.3-3.24v-.6c0-3.36 0-3.36 3.3-3.36zM367.2 125.2h13.95v5.88H367.2v-5.88z" fill="#fff"/><path d="M373.95 129.16c3.3 0 3.3 0 3.3 3.36v.6c0 3.24 0 3.24-3.3 3.24s-3.3 0-3.3-3.24v-.6c0-3.36 0-3.36 3.3-3.36z" fill="#fff"/><path d="M428.85 76.96c5.7 1.08 5.7 1.08 4.65 6.6l-5.4 27.48c-1.05 5.64-1.05 5.64-6.75 4.56-5.55-1.08-5.55-1.08-4.5-6.6l5.25-27.6c1.2-5.52 1.2-5.52 6.75-4.44z" fill="#29aae1"/><path d="M434.85 46.48c3.45.72 3.45.72 2.85 4.08L432 79.24c-.6 3.36-.6 3.36-4.05 2.76-3.6-.72-3.6-.72-2.85-4.08l5.55-28.68c.6-3.36.6-3.36 4.2-2.76z" fill="#29aae1"/><path d="M398.55 111.04h40.2v37.92h-40.2v-37.92z" fill="#fff"/><path d="M399.9 112.36h37.35v35.16H399.9v-35.16z" fill="#54bbe7"/><path d="M417.9 114.04l-4.5 4.68h2.4l.15 6.48h4.65l-.45-6.48h2.4l-4.65-4.68zM418.65 144.76l4.5-4.44-2.25-.12-.15-6.48-4.65-.12.45 6.48H414l4.65 4.68zM420.3 129.76l4.5 4.68.15-2.28h6.45l.3-4.56-6.6.24v-1.68l.15-.72-4.95 4.32zM416.4 129.76l-4.5-4.56-.15 2.28-6.45-.12-.3 4.56 6.6-.24v1.8l-.15.72 4.95-4.44z" fill="#fff"/><path d="M308.7 74.56c5.55-1.08 5.55-1.08 6.6 4.44l5.4 27.48c1.2 5.64 1.2 5.64-4.5 6.72s-5.7 1.08-6.75-4.56l-5.4-27.48c-1.05-5.52-1.05-5.52 4.65-6.6z" fill="#29aae1"/><path d="M302.7 44.08c3.45-.72 3.45-.72 4.2 2.76l5.55 28.68c.6 3.36.6 3.36-2.85 4.08-3.45.6-3.45.6-4.05-2.76l-5.7-28.68c-.6-3.48-.6-3.48 2.85-4.08z" fill="#29aae1"/><path d="M254 109c0-3.3 2.7-6 6-6h28c3.3 0 6 2.7 6 6v28c0 3.3-2.7 6-6 6h-28c-3.3 0-6-2.7-6-6z" stroke="#000" stroke-opacity="0" stroke-width="3" fill="#fff" fill-opacity="0"/><use xlink:href="#c" transform="matrix(1,0,0,1,259,108) translate(5.154320987654321 19.65277777777778)"/><path d="M397 169c0-3.3 2.7-6 6-6h128c3.3 0 6 2.7 6 6v28c0 3.3-2.7 6-6 6H403c-3.3 0-6-2.7-6-6z" stroke="#000" stroke-opacity="0" stroke-width="3" fill="#fff" fill-opacity="0"/><use xlink:href="#d" transform="matrix(1,0,0,1,402,168) translate(0 19.444444444444443)"/><path d="M200 169c0-3.3 2.7-6 6-6h128c3.3 0 6 2.7 6 6v28c0 3.3-2.7 6-6 6H206c-3.3 0-6-2.7-6-6z" stroke="#000" stroke-opacity="0" stroke-width="3" fill="#fff" fill-opacity="0"/><use xlink:href="#e" transform="matrix(1,0,0,1,205,168) translate(-11.975308641975317 19.444444444444443)"/><path d="M449 552h70.07v120.12H449V552z" fill="#29aae1"/><path d="M475.74 635.4h35.63c1.12 0 1.12 0 1.12 1.2 0 1.08 0 1.08-1.13 1.08h-35.63c-1.2 0-1.2 0-1.2-1.08 0-1.2 0-1.2 1.2-1.2zM475.8 641.52h35.5c1.54 0 1.54 0 1.54 1.56v.36c0 1.56 0 1.56-1.54 1.56h-35.5c-1.6 0-1.6 0-1.6-1.56v-.36c0-1.56 0-1.56 1.6-1.56zM475.95 649.08h35.56c1.55 0 1.55 0 1.55 1.56v.36c0 1.56 0 1.56-1.54 1.56h-35.55c-1.54 0-1.54 0-1.54-1.56v-.36c0-1.56 0-1.56 1.55-1.56zM508.36 610.32c0 3.12-2.52 5.64-5.74 5.64s-5.8-2.52-5.8-5.64c0-3.12 2.58-5.64 5.8-5.64 3.22 0 5.74 2.52 5.74 5.64z" fill="#fff"/><path d="M506.05 610.32c0 1.92-1.54 3.48-3.5 3.48s-3.57-1.56-3.57-3.48 1.6-3.48 3.57-3.48c1.96 0 3.5 1.56 3.5 3.48z" fill="#54bbe7"/><use xlink:href="#f" transform="matrix(1,0,0,1,419,672) translate(44.660493827160494 19.444444444444443)"/><path d="M492 518c0-3.3 2.7-6 6-6h128c3.3 0 6 2.7 6 6v28c0 3.3-2.7 6-6 6H498c-3.3 0-6-2.7-6-6z" stroke="#000" stroke-opacity="0" stroke-width="3" fill="#fff" fill-opacity="0"/><use xlink:href="#g" transform="matrix(1,0,0,1,497,517) translate(0 19.65277777777778)"/><path d="M667 552h70.07v120.12H667V552z" fill="#29aae1"/><path d="M693.74 635.4h35.63c1.12 0 1.12 0 1.12 1.2 0 1.08 0 1.08-1.13 1.08h-35.63c-1.2 0-1.2 0-1.2-1.08 0-1.2 0-1.2 1.2-1.2zM693.8 641.52h35.5c1.54 0 1.54 0 1.54 1.56v.36c0 1.56 0 1.56-1.54 1.56h-35.5c-1.6 0-1.6 0-1.6-1.56v-.36c0-1.56 0-1.56 1.6-1.56zM693.95 649.08h35.56c1.55 0 1.55 0 1.55 1.56v.36c0 1.56 0 1.56-1.54 1.56h-35.55c-1.54 0-1.54 0-1.54-1.56v-.36c0-1.56 0-1.56 1.55-1.56zM726.36 610.32c0 3.12-2.52 5.64-5.74 5.64s-5.8-2.52-5.8-5.64c0-3.12 2.58-5.64 5.8-5.64 3.22 0 5.74 2.52 5.74 5.64z" fill="#fff"/><path d="M724.05 610.32c0 1.92-1.54 3.48-3.5 3.48s-3.57-1.56-3.57-3.48 1.6-3.48 3.57-3.48c1.96 0 3.5 1.56 3.5 3.48z" fill="#54bbe7"/><use xlink:href="#h" transform="matrix(1,0,0,1,637,672) translate(44.660493827160494 19.444444444444443)"/><path d="M707 518c0-3.3 2.7-6 6-6h128c3.3 0 6 2.7 6 6v28c0 3.3-2.7 6-6 6H713c-3.3 0-6-2.7-6-6z" stroke="#000" stroke-opacity="0" stroke-width="3" fill="#fff" fill-opacity="0"/><use xlink:href="#i" transform="matrix(1,0,0,1,712,517) translate(0 19.65277777777778)"/><path d="M130.7 677.12h18v13.94h-18v-13.94zM43.7 552h190.4v125.12H43.7V552z" fill="#29aae1"/><path d="M52.3 559.65h173.8V671.5H52.3V559.66z" fill="#fff" fill-opacity=".98"/><path d="M51.1 691.9h173.6l-8.6 29.93H42.5l8.6-29.92z" fill="#29aae1"/><path d="M50.1 690.9h177.6l14.8 30.93H64.9L50.1 690.9z" fill="#29aae1"/><path d="M110.3 713.84h63.2v6.3h-63.2v-6.3zM75.5 695.82h4.6v3.9h-4.6v-3.9zM83.7 696h4.8v3.9h-4.8V696zM94.3 703.13h4.8v3.9h-4.8v-3.9zM92.7 695.48h4.6v4.08h-4.6v-4.08zM100.7 695.82h4.8v3.9h-4.8v-3.9zM108.5 695.48h4.8v4.08h-4.8v-4.08zM157.5 696.16h4.8v4.08h-4.8v-4.08zM164.7 696.16h4.8v4.08h-4.8v-4.08zM171.5 696.16h4.8v4.08h-4.8v-4.08zM179.7 696.16h4.6v4.08h-4.6v-4.08zM187.1 696.16h4.6v4.08h-4.6v-4.08zM178.3 702.8h4.6v3.9h-4.6v-3.9zM195.5 696.16h4.8v4.08h-4.8v-4.08zM103.3 702.96h4.6v3.9h-4.6v-3.9zM112.3 702.96h4.6v3.9h-4.6v-3.9zM170.9 702.62h4v3.9h-4v-3.9zM162.7 702.62h4.8v3.9h-4.8v-3.9zM117.3 695.65h4.8v4.08h-4.8v-4.08zM126.3 695.82h4.6v4.08h-4.6v-4.08zM134.5 695.65h4.6v4.08h-4.6v-4.08zM143.5 695.65h4.6v4.08h-4.6v-4.08zM150.9 695.82h4.6v4.08h-4.6v-4.08zM120.3 702.8h4.8v3.9h-4.8v-3.9zM129.3 702.8h4.6v3.9h-4.6v-3.9zM137.5 702.96h4.8v3.9h-4.8v-3.9zM145.7 702.96h4.6v3.9h-4.6v-3.9zM154.1 702.62h4.6v3.9h-4.6v-3.9z" fill="#fff"/><path d="M42.7 721.83l199.8-.68-14.2-30.26-177 .33-8.6 30.6z" fill="none"/><path d="M129.7 677.12h19.6V679h-19.6v-1.88zM130.5 688.68h18.6v2.2h-18.6v-2.2z" fill="#fff"/><use xlink:href="#j" transform="matrix(1,0,0,1,12.5,722) translate(100.37037037037038 19.444444444444443)"/><path d="M162 518c0-3.3 2.7-6 6-6h128c3.3 0 6 2.7 6 6v28c0 3.3-2.7 6-6 6H168c-3.3 0-6-2.7-6-6z" stroke="#000" stroke-opacity="0" stroke-width="3" fill="#fff" fill-opacity="0"/><use xlink:href="#g" transform="matrix(1,0,0,1,167,517) translate(0 19.65277777777778)"/><defs><path fill="#333" d="M135-143c-3-34-86-38-87 0 15 53 115 12 119 90S17 21 10-45l28-5c4 36 97 45 98 0-10-56-113-15-118-90-4-57 82-63 122-42 12 7 21 19 24 35" id="k"/><path fill="#333" d="M101-251c82-7 93 87 43 132L82-64C71-53 59-42 53-27h129V0H18c2-99 128-94 128-182 0-28-16-43-45-43s-46 15-49 41l-32-3c6-41 34-60 81-64" id="l"/><g id="a"><use transform="matrix(0.06172839506172839,0,0,0.06172839506172839,0,0)" xlink:href="#k"/><use transform="matrix(0.06172839506172839,0,0,0.06172839506172839,11.11111111111111,0)" xlink:href="#l"/></g><path fill="#333" d="M27 0v-27h64v-190l-56 39v-29l58-41h29v221h61V0H27" id="m"/><g id="b"><use transform="matrix(0.06172839506172839,0,0,0.06172839506172839,0,0)" xlink:href="#k"/><use transform="matrix(0.06172839506172839,0,0,0.06172839506172839,11.11111111111111,0)" xlink:href="#m"/></g><path fill="#333" d="M114-163C36-179 61-72 57 0H25l-1-190h30c1 12-1 29 2 39 6-27 23-49 58-41v29" id="n"/><path fill="#333" d="M101-251c68 0 85 55 85 127S166 4 100 4C33 4 14-52 14-124c0-73 17-127 87-127zm-1 229c47 0 54-49 54-102s-4-102-53-102c-51 0-55 48-55 102 0 53 5 102 54 102" id="o"/><g id="c"><use transform="matrix(0.06172839506172839,0,0,0.06172839506172839,0,0)" xlink:href="#n"/><use transform="matrix(0.06172839506172839,0,0,0.06172839506172839,7.345679012345679,0)" xlink:href="#o"/></g><path fill="#333" d="M99-251c64 0 84 50 84 122C183-37 130 33 47-8c-14-7-20-23-25-40l30-5c6 39 69 39 84 7 9-19 16-44 16-74-10 22-31 35-62 35-49 0-73-33-73-83 0-54 28-83 82-83zm-1 141c31-1 51-18 51-49 0-36-14-67-51-67-34 0-49 23-49 58 0 34 15 58 49 58" id="p"/><path fill="#333" d="M33 0v-38h34V0H33" id="q"/><path fill="#333" d="M110-160c48 1 74 30 74 79 0 53-28 85-80 85-65 0-83-55-86-122-5-90 50-162 133-122 14 7 22 21 27 39l-31 6c-5-40-67-38-82-6-9 19-15 44-15 74 11-20 30-34 60-33zm-7 138c34 0 49-23 49-58s-16-56-50-56c-29 0-50 16-49 49 1 36 15 65 50 65" id="r"/><path fill="#333" d="M134-131c28 9 52 24 51 62-1 50-34 73-85 73S17-19 16-69c0-36 21-54 49-61-75-25-45-126 34-121 46 3 78 18 79 63 0 33-17 51-44 57zm-34-11c31 1 46-15 46-44 0-28-17-43-47-42-29 0-46 13-45 42 1 28 16 44 46 44zm1 122c35 0 51-18 51-52 0-30-18-46-53-46-33 0-51 17-51 47 0 34 19 51 53 51" id="s"/><path fill="#333" d="M54-142c48-35 137-8 131 61C196 18 31 33 14-55l32-4c7 23 22 37 52 37 35-1 51-22 54-58 4-55-73-65-99-34H22l8-134h141v27H59" id="t"/><path fill="#333" d="M155-56V0h-30v-56H8v-25l114-167h33v167h35v25h-35zm-30-156c-27 46-58 90-88 131h88v-131" id="u"/><g id="d"><use transform="matrix(0.06172839506172839,0,0,0.06172839506172839,0,0)" xlink:href="#m"/><use transform="matrix(0.06172839506172839,0,0,0.06172839506172839,12.345679012345679,0)" xlink:href="#p"/><use transform="matrix(0.06172839506172839,0,0,0.06172839506172839,24.691358024691358,0)" xlink:href="#l"/><use transform="matrix(0.06172839506172839,0,0,0.06172839506172839,37.03703703703704,0)" xlink:href="#q"/><use transform="matrix(0.06172839506172839,0,0,0.06172839506172839,43.20987654320988,0)" xlink:href="#m"/><use transform="matrix(0.06172839506172839,0,0,0.06172839506172839,55.55555555555556,0)" xlink:href="#r"/><use transform="matrix(0.06172839506172839,0,0,0.06172839506172839,67.90123456790124,0)" xlink:href="#s"/><use transform="matrix(0.06172839506172839,0,0,0.06172839506172839,80.24691358024693,0)" xlink:href="#q"/><use transform="matrix(0.06172839506172839,0,0,0.06172839506172839,86.41975308641976,0)" xlink:href="#m"/><use transform="matrix(0.06172839506172839,0,0,0.06172839506172839,98.76543209876544,0)" xlink:href="#q"/><use transform="matrix(0.06172839506172839,0,0,0.06172839506172839,104.93827160493828,0)" xlink:href="#l"/><use transform="matrix(0.06172839506172839,0,0,0.06172839506172839,117.28395061728396,0)" xlink:href="#t"/><use transform="matrix(0.06172839506172839,0,0,0.06172839506172839,129.62962962962965,0)" xlink:href="#u"/></g><g id="e"><use transform="matrix(0.06172839506172839,0,0,0.06172839506172839,0,0)" xlink:href="#m"/><use transform="matrix(0.06172839506172839,0,0,0.06172839506172839,12.345679012345679,0)" xlink:href="#p"/><use transform="matrix(0.06172839506172839,0,0,0.06172839506172839,24.691358024691358,0)" xlink:href="#l"/><use transform="matrix(0.06172839506172839,0,0,0.06172839506172839,37.03703703703704,0)" xlink:href="#q"/><use transform="matrix(0.06172839506172839,0,0,0.06172839506172839,43.20987654320988,0)" xlink:href="#m"/><use transform="matrix(0.06172839506172839,0,0,0.06172839506172839,55.55555555555556,0)" xlink:href="#r"/><use transform="matrix(0.06172839506172839,0,0,0.06172839506172839,67.90123456790124,0)" xlink:href="#s"/><use transform="matrix(0.06172839506172839,0,0,0.06172839506172839,80.24691358024693,0)" xlink:href="#q"/><use transform="matrix(0.06172839506172839,0,0,0.06172839506172839,86.41975308641976,0)" xlink:href="#l"/><use transform="matrix(0.06172839506172839,0,0,0.06172839506172839,98.76543209876544,0)" xlink:href="#q"/><use transform="matrix(0.06172839506172839,0,0,0.06172839506172839,104.93827160493828,0)" xlink:href="#l"/><use transform="matrix(0.06172839506172839,0,0,0.06172839506172839,117.28395061728396,0)" xlink:href="#t"/><use transform="matrix(0.06172839506172839,0,0,0.06172839506172839,129.62962962962965,0)" xlink:href="#u"/></g><path fill="#333" d="M115-194c55 1 70 41 70 98S169 2 115 4C84 4 66-9 55-30l1 105H24l-1-265h31l2 30c10-21 28-34 59-34zm-8 174c40 0 45-34 45-75s-6-73-45-74c-42 0-51 32-51 76 0 43 10 73 51 73" id="v"/><path fill="#333" d="M24 0v-261h32V0H24" id="w"/><path fill="#333" d="M96-169c-40 0-48 33-48 73s9 75 48 75c24 0 41-14 43-38l32 2c-6 37-31 61-74 61-59 0-76-41-82-99-10-93 101-131 147-64 4 7 5 14 7 22l-32 3c-4-21-16-35-41-35" id="x"/><g id="f"><use transform="matrix(0.06172839506172839,0,0,0.06172839506172839,0,0)" xlink:href="#v"/><use transform="matrix(0.06172839506172839,0,0,0.06172839506172839,12.345679012345679,0)" xlink:href="#w"/><use transform="matrix(0.06172839506172839,0,0,0.06172839506172839,17.22222222222222,0)" xlink:href="#x"/><use transform="matrix(0.06172839506172839,0,0,0.06172839506172839,28.333333333333332,0)" xlink:href="#m"/></g><g id="g"><use transform="matrix(0.06172839506172839,0,0,0.06172839506172839,0,0)" xlink:href="#m"/><use transform="matrix(0.06172839506172839,0,0,0.06172839506172839,12.345679012345679,0)" xlink:href="#p"/><use transform="matrix(0.06172839506172839,0,0,0.06172839506172839,24.691358024691358,0)" xlink:href="#l"/><use transform="matrix(0.06172839506172839,0,0,0.06172839506172839,37.03703703703704,0)" xlink:href="#q"/><use transform="matrix(0.06172839506172839,0,0,0.06172839506172839,43.20987654320988,0)" xlink:href="#m"/><use transform="matrix(0.06172839506172839,0,0,0.06172839506172839,55.55555555555556,0)" xlink:href="#r"/><use transform="matrix(0.06172839506172839,0,0,0.06172839506172839,67.90123456790124,0)" xlink:href="#s"/><use transform="matrix(0.06172839506172839,0,0,0.06172839506172839,80.24691358024693,0)" xlink:href="#q"/><use transform="matrix(0.06172839506172839,0,0,0.06172839506172839,86.41975308641976,0)" xlink:href="#m"/><use transform="matrix(0.06172839506172839,0,0,0.06172839506172839,98.76543209876544,0)" xlink:href="#q"/><use transform="matrix(0.06172839506172839,0,0,0.06172839506172839,104.93827160493828,0)" xlink:href="#m"/></g><g id="h"><use transform="matrix(0.06172839506172839,0,0,0.06172839506172839,0,0)" xlink:href="#v"/><use transform="matrix(0.06172839506172839,0,0,0.06172839506172839,12.345679012345679,0)" xlink:href="#w"/><use transform="matrix(0.06172839506172839,0,0,0.06172839506172839,17.22222222222222,0)" xlink:href="#x"/><use transform="matrix(0.06172839506172839,0,0,0.06172839506172839,28.333333333333332,0)" xlink:href="#l"/></g><g id="i"><use transform="matrix(0.06172839506172839,0,0,0.06172839506172839,0,0)" xlink:href="#m"/><use transform="matrix(0.06172839506172839,0,0,0.06172839506172839,12.345679012345679,0)" xlink:href="#p"/><use transform="matrix(0.06172839506172839,0,0,0.06172839506172839,24.691358024691358,0)" xlink:href="#l"/><use transform="matrix(0.06172839506172839,0,0,0.06172839506172839,37.03703703703704,0)" xlink:href="#q"/><use transform="matrix(0.06172839506172839,0,0,0.06172839506172839,43.20987654320988,0)" xlink:href="#m"/><use transform="matrix(0.06172839506172839,0,0,0.06172839506172839,55.55555555555556,0)" xlink:href="#r"/><use transform="matrix(0.06172839506172839,0,0,0.06172839506172839,67.90123456790124,0)" xlink:href="#s"/><use transform="matrix(0.06172839506172839,0,0,0.06172839506172839,80.24691358024693,0)" xlink:href="#q"/><use transform="matrix(0.06172839506172839,0,0,0.06172839506172839,86.41975308641976,0)" xlink:href="#m"/><use transform="matrix(0.06172839506172839,0,0,0.06172839506172839,98.76543209876544,0)" xlink:href="#q"/><use transform="matrix(0.06172839506172839,0,0,0.06172839506172839,104.93827160493828,0)" xlink:href="#l"/></g><path fill="#333" d="M141-36C126-15 110 5 73 4 37 3 15-17 15-53c-1-64 63-63 125-63 3-35-9-54-41-54-24 1-41 7-42 31l-33-3c5-37 33-52 76-52 45 0 72 20 72 64v82c-1 20 7 32 28 27v20c-31 9-61-2-59-35zM48-53c0 20 12 33 32 33 41-3 63-29 60-74-43 2-92-5-92 41" id="y"/><path fill="#333" d="M85-194c31 0 48 13 60 33l-1-100h32l1 261h-30c-2-10 0-23-3-31C134-8 116 4 85 4 32 4 16-35 15-94c0-66 23-100 70-100zm9 24c-40 0-46 34-46 75 0 40 6 74 45 74 42 0 51-32 51-76 0-42-9-74-50-73" id="z"/><g id="j"><use transform="matrix(0.06172839506172839,0,0,0.06172839506172839,0,0)" xlink:href="#k"/><use transform="matrix(0.06172839506172839,0,0,0.06172839506172839,11.11111111111111,0)" xlink:href="#x"/><use transform="matrix(0.06172839506172839,0,0,0.06172839506172839,22.22222222222222,0)" xlink:href="#y"/><use transform="matrix(0.06172839506172839,0,0,0.06172839506172839,34.5679012345679,0)" xlink:href="#z"/><use transform="matrix(0.06172839506172839,0,0,0.06172839506172839,46.913580246913575,0)" xlink:href="#y"/></g></defs></g></svg>